<svg width="96" height="96" viewBox="0 0 96 96" fill="none" xmlns="http://www.w3.org/2000/svg">
<circle cx="48" cy="48" r="48" fill="#DBF8EF"/>
<circle cx="47.6667" cy="47.6666" r="36.6667" fill="#0FC221"/>
<path fill-rule="evenodd" clip-rule="evenodd" d="M37.7532 64.6615L34.5037 61.4119L65.993 29.8077C67.0698 28.7308 68.8157 28.7308 69.8925 29.8077L71.1924 31.1074C72.2692 32.1843 72.2692 33.9302 71.1924 35.007L41.6527 64.6615C40.576 65.7383 38.8301 65.7383 37.7532 64.6615Z" fill="white"/>
<path fill-rule="evenodd" clip-rule="evenodd" d="M44.8964 61.4119L41.6468 64.6614C40.57 65.7383 38.8241 65.7383 37.7473 64.6614L24.8077 51.7218C23.7308 50.645 23.7308 48.8991 24.8077 47.8223L26.1074 46.5225C27.1843 45.4456 28.9302 45.4456 30.007 46.5225L44.8964 61.4119Z" fill="white"/>
</svg>
