<svg width="32" height="32" viewBox="0 0 32 32" fill="none" xmlns="http://www.w3.org/2000/svg">
<path d="M30.0002 25H2.00024C1.73503 25 1.48067 25.1054 1.29314 25.2929C1.1056 25.4804 1.00024 25.7348 1.00024 26C1.00024 26.2652 1.1056 26.5196 1.29314 26.7071C1.48067 26.8946 1.73503 27 2.00024 27H30.0002C30.2655 27 30.5198 26.8946 30.7074 26.7071C30.8949 26.5196 31.0002 26.2652 31.0002 26C31.0002 25.7348 30.8949 25.4804 30.7074 25.2929C30.5198 25.1054 30.2655 25 30.0002 25Z" fill="#00B6FF"/>
<path d="M4.00024 20.9999C3.73503 20.9999 3.48067 21.1053 3.29314 21.2928C3.1056 21.4804 3.00024 21.7347 3.00024 21.9999C3.00024 22.2652 3.1056 22.5195 3.29314 22.707C3.48067 22.8946 3.73503 22.9999 4.00024 22.9999H28.0002C28.2655 22.9999 28.5198 22.8946 28.7074 22.707C28.8949 22.5195 29.0002 22.2652 29.0002 21.9999C29.0002 21.7347 28.8949 21.4804 28.7074 21.2928C28.5198 21.1053 28.2655 20.9999 28.0002 20.9999H26.0002V12.9999H28.0002C28.2149 12.9999 28.4238 12.9309 28.5961 12.803C28.7685 12.6751 28.8951 12.4951 28.9573 12.2897C29.0195 12.0843 29.0139 11.8643 28.9415 11.6623C28.869 11.4603 28.7335 11.287 28.5549 11.1679L16.5549 3.16791C16.3907 3.05842 16.1977 3 16.0002 3C15.8028 3 15.6098 3.05842 15.4456 3.16791L3.44556 11.1679C3.26699 11.287 3.13147 11.4603 3.05901 11.6623C2.98656 11.8643 2.98102 12.0843 3.04321 12.2897C3.1054 12.4951 3.23202 12.6751 3.40437 12.803C3.57671 12.9309 3.78563 12.9999 4.00024 12.9999H6.00024V20.9999H4.00024ZM18.0002 13.9999C18.0002 13.7347 18.1056 13.4804 18.2931 13.2928C18.4807 13.1053 18.735 12.9999 19.0002 12.9999C19.2655 12.9999 19.5198 13.1053 19.7074 13.2928C19.8949 13.4804 20.0002 13.7347 20.0002 13.9999V19.9999C20.0002 20.2652 19.8949 20.5195 19.7074 20.707C19.5198 20.8946 19.2655 20.9999 19.0002 20.9999C18.735 20.9999 18.4807 20.8946 18.2931 20.707C18.1056 20.5195 18.0002 20.2652 18.0002 19.9999V13.9999ZM12.0002 13.9999C12.0002 13.7347 12.1056 13.4804 12.2931 13.2928C12.4807 13.1053 12.735 12.9999 13.0002 12.9999C13.2655 12.9999 13.5198 13.1053 13.7074 13.2928C13.8949 13.4804 14.0002 13.7347 14.0002 13.9999V19.9999C14.0002 20.2652 13.8949 20.5195 13.7074 20.707C13.5198 20.8946 13.2655 20.9999 13.0002 20.9999C12.735 20.9999 12.4807 20.8946 12.2931 20.707C12.1056 20.5195 12.0002 20.2652 12.0002 19.9999V13.9999Z" fill="#00B6FF"/>
</svg>
