<svg width="32" height="32" viewBox="0 0 32 32" fill="none" xmlns="http://www.w3.org/2000/svg">
<path d="M23.9993 20.998H21.9993C21.7341 20.998 21.4797 21.1034 21.2922 21.2909C21.1046 21.4785 20.9993 21.7328 20.9993 21.998C20.9993 22.2633 21.1046 22.5176 21.2922 22.7052C21.4797 22.8927 21.7341 22.998 21.9993 22.998H23.9993C24.2645 22.998 24.5188 22.8927 24.7064 22.7052C24.8939 22.5176 24.9993 22.2633 24.9993 21.998C24.9993 21.7328 24.8939 21.4785 24.7064 21.2909C24.5188 21.1034 24.2645 20.998 23.9993 20.998Z" fill="#00B6FF"/>
<path d="M23.9993 15.998H21.9993C21.7341 15.998 21.4797 16.1034 21.2922 16.2909C21.1046 16.4785 20.9993 16.7328 20.9993 16.998C20.9993 17.2633 21.1046 17.5176 21.2922 17.7052C21.4797 17.8927 21.7341 17.998 21.9993 17.998H23.9993C24.2645 17.998 24.5188 17.8927 24.7064 17.7052C24.8939 17.5176 24.9993 17.2633 24.9993 16.998C24.9993 16.7328 24.8939 16.4785 24.7064 16.2909C24.5188 16.1034 24.2645 15.998 23.9993 15.998Z" fill="#00B6FF"/>
<path d="M26.9993 10.998H18.9993V4.99805C18.9987 4.4678 18.7878 3.95944 18.4128 3.5845C18.0379 3.20956 17.5295 2.99865 16.9993 2.99805H4.99927C4.46902 2.99865 3.96066 3.20956 3.58572 3.5845C3.21078 3.95944 2.99987 4.4678 2.99927 4.99805V27.998C2.99927 28.2633 3.10463 28.5176 3.29216 28.7052C3.4797 28.8927 3.73405 28.998 3.99927 28.998H17.9993C18.2645 28.998 18.5188 28.8927 18.7064 28.7052C18.8939 28.5176 18.9993 28.2633 18.9993 27.998V12.998H26.9993V27.998C26.9993 28.2633 27.1046 28.5176 27.2922 28.7052C27.4797 28.8927 27.7341 28.998 27.9993 28.998C28.2645 28.998 28.5188 28.8927 28.7064 28.7052C28.8939 28.5176 28.9993 28.2633 28.9993 27.998V12.998C28.9987 12.4678 28.7878 11.9594 28.4128 11.5845C28.0379 11.2096 27.5295 10.9987 26.9993 10.998ZM7.99927 7.99805H11.9993C12.2645 7.99805 12.5188 8.1034 12.7064 8.29094C12.8939 8.47848 12.9993 8.73283 12.9993 8.99805C12.9993 9.26326 12.8939 9.51762 12.7064 9.70515C12.5188 9.89269 12.2645 9.99805 11.9993 9.99805H7.99927C7.73405 9.99805 7.4797 9.89269 7.29216 9.70515C7.10462 9.51762 6.99927 9.26326 6.99927 8.99805C6.99927 8.73283 7.10462 8.47848 7.29216 8.29094C7.4797 8.1034 7.73405 7.99805 7.99927 7.99805ZM11.9993 24.998H7.99927C7.73405 24.998 7.4797 24.8927 7.29216 24.7052C7.10462 24.5176 6.99927 24.2633 6.99927 23.998C6.99927 23.7328 7.10462 23.4785 7.29216 23.2909C7.4797 23.1034 7.73405 22.998 7.99927 22.998H11.9993C12.2645 22.998 12.5188 23.1034 12.7064 23.2909C12.8939 23.4785 12.9993 23.7328 12.9993 23.998C12.9993 24.2633 12.8939 24.5176 12.7064 24.7052C12.5188 24.8927 12.2645 24.998 11.9993 24.998ZM13.9993 19.998H9.99927C9.73405 19.998 9.4797 19.8927 9.29216 19.7052C9.10462 19.5176 8.99927 19.2633 8.99927 18.998C8.99927 18.7328 9.10462 18.4785 9.29216 18.2909C9.4797 18.1034 9.73405 17.998 9.99927 17.998H13.9993C14.2645 17.998 14.5188 18.1034 14.7064 18.2909C14.8939 18.4785 14.9993 18.7328 14.9993 18.998C14.9993 19.2633 14.8939 19.5176 14.7064 19.7052C14.5188 19.8927 14.2645 19.998 13.9993 19.998Z" fill="#00B6FF"/>
</svg>
