<svg width="64" height="64" viewBox="0 0 64 64" fill="none" xmlns="http://www.w3.org/2000/svg">
<g id="24 / software / cloud-upload">
<path id="icon" fill-rule="evenodd" clip-rule="evenodd" d="M45.3332 45.3332V50.6665H47.9998C55.3636 50.6665 61.3332 44.697 61.3332 37.3332C61.3332 30.6264 56.3813 25.0762 49.9343 24.1392C47.6665 16.2815 40.4228 10.6665 31.9998 10.6665C25.7423 10.6665 20.0239 13.7734 16.5862 18.8006C8.71192 19.8224 2.6665 26.5566 2.6665 34.6665C2.6665 43.5031 9.82995 50.6665 18.6665 50.6665V45.3332C12.7755 45.3332 7.99984 40.5575 7.99984 34.6665C7.99984 28.9344 12.5314 24.2322 18.2389 24.0082L19.7083 23.9505L20.4436 22.6771C22.8113 18.577 27.1796 15.9998 31.9998 15.9998C38.5362 15.9998 44.0807 20.7365 45.149 27.1096L45.5299 29.3816L47.8331 29.3349C47.9163 29.3335 47.9163 29.3335 47.9998 29.3332C52.4181 29.3332 55.9998 32.9149 55.9998 37.3332C55.9998 41.7514 52.4181 45.3332 47.9998 45.3332H45.3332ZM34.6666 55.9997V38.4376L40.781 44.552L44.5522 40.7807L32 28.2284L19.4477 40.7807L23.2189 44.552L29.3333 38.4376V55.9997H34.6666Z" fill="#02BAFF"/>
</g>
</svg>
