<svg width="256" height="256" viewBox="0 0 256 256" fill="none" xmlns="http://www.w3.org/2000/svg">
<circle cx="128" cy="128" r="128" fill="#FFDCDE"/>
<circle cx="127.111" cy="127.111" r="97.7778" fill="#C20F0F"/>
<path fill-rule="evenodd" clip-rule="evenodd" d="M160.79 95.2098C162.7 97.119 162.7 100.214 160.79 102.124L102.124 160.79C100.214 162.7 97.1189 162.7 95.2097 160.79C93.3005 158.881 93.3005 155.786 95.2097 153.876L153.876 95.2098C155.786 93.3005 158.881 93.3005 160.79 95.2098Z" fill="white"/>
<path fill-rule="evenodd" clip-rule="evenodd" d="M95.2097 95.2098C97.1189 93.3005 100.214 93.3005 102.124 95.2098L160.79 153.876C162.7 155.786 162.7 158.881 160.79 160.79C158.881 162.7 155.786 162.7 153.876 160.79L95.2097 102.124C93.3005 100.214 93.3005 97.119 95.2097 95.2098Z" fill="white"/>
</svg>
