<svg width="48" height="48" viewBox="0 0 48 48" fill="none" xmlns="http://www.w3.org/2000/svg">
<rect width="48" height="48" rx="24" fill="#F5F5F5"/>
<path d="M21.25 34H23.25V36H21.25V34Z" fill="#0FC221" fill-opacity="0.2"/>
<path d="M38.75 19C38.75 18.6022 38.592 18.2206 38.3107 17.9393C38.0294 17.658 37.6478 17.5 37.25 17.5H18.25C17.8522 17.5 17.4706 17.658 17.1893 17.9393C16.908 18.2206 16.75 18.6022 16.75 19V38C16.75 38.3978 16.908 38.7794 17.1893 39.0607C17.4706 39.342 17.8522 39.5 18.25 39.5H37.25C37.6478 39.5 38.0294 39.342 38.3107 39.0607C38.592 38.7794 38.75 38.3978 38.75 38V19ZM24.25 36.5C24.25 36.6326 24.1973 36.7598 24.1036 36.8536C24.0098 36.9473 23.8826 37 23.75 37H20.75C20.6174 37 20.4902 36.9473 20.3964 36.8536C20.3027 36.7598 20.25 36.6326 20.25 36.5V33.5C20.25 33.3674 20.3027 33.2402 20.3964 33.1464C20.4902 33.0527 20.6174 33 20.75 33H23.75C23.8826 33 24.0098 33.0527 24.1036 33.1464C24.1973 33.2402 24.25 33.3674 24.25 33.5V36.5ZM25.1035 27.8535L22.457 30.5C22.2695 30.6875 22.0152 30.7928 21.75 30.7928C21.4848 30.7928 21.2305 30.6875 21.043 30.5L19.8965 29.3535C19.8054 29.2592 19.755 29.1329 19.7562 29.0018C19.7573 28.8707 19.8099 28.7453 19.9026 28.6526C19.9953 28.5599 20.1207 28.5073 20.2518 28.5062C20.3829 28.505 20.5092 28.5554 20.6035 28.6465L21.75 29.793L24.3965 27.1465C24.4908 27.0554 24.6171 27.005 24.7482 27.0062C24.8793 27.0073 25.0047 27.0599 25.0974 27.1526C25.1901 27.2453 25.2427 27.3707 25.2438 27.5018C25.245 27.6329 25.1946 27.7592 25.1035 27.8535V27.8535ZM25.1035 21.3535L22.457 24C22.2695 24.1875 22.0152 24.2928 21.75 24.2928C21.4848 24.2928 21.2305 24.1875 21.043 24L19.8965 22.8535C19.8054 22.7592 19.755 22.6329 19.7562 22.5018C19.7573 22.3707 19.8099 22.2453 19.9026 22.1526C19.9953 22.0599 20.1207 22.0073 20.2518 22.0062C20.3829 22.005 20.5092 22.0554 20.6035 22.1465L21.75 23.293L24.3965 20.6465C24.4908 20.5554 24.6171 20.505 24.7482 20.5062C24.8793 20.5073 25.0047 20.5599 25.0974 20.6526C25.1901 20.7453 25.2427 20.8707 25.2438 21.0018C25.245 21.1329 25.1946 21.2592 25.1035 21.3535V21.3535ZM32.25 36.5H27.75C27.6174 36.5 27.4902 36.4473 27.3964 36.3536C27.3027 36.2598 27.25 36.1326 27.25 36C27.25 35.8674 27.3027 35.7402 27.3964 35.6464C27.4902 35.5527 27.6174 35.5 27.75 35.5H32.25C32.3826 35.5 32.5098 35.5527 32.6036 35.6464C32.6973 35.7402 32.75 35.8674 32.75 36C32.75 36.1326 32.6973 36.2598 32.6036 36.3536C32.5098 36.4473 32.3826 36.5 32.25 36.5ZM35.25 34.5H27.75C27.6174 34.5 27.4902 34.4473 27.3964 34.3536C27.3027 34.2598 27.25 34.1326 27.25 34C27.25 33.8674 27.3027 33.7402 27.3964 33.6464C27.4902 33.5527 27.6174 33.5 27.75 33.5H35.25C35.3826 33.5 35.5098 33.5527 35.6036 33.6464C35.6973 33.7402 35.75 33.8674 35.75 34C35.75 34.1326 35.6973 34.2598 35.6036 34.3536C35.5098 34.4473 35.3826 34.5 35.25 34.5ZM27.25 30C27.25 29.8674 27.3027 29.7402 27.3964 29.6464C27.4902 29.5527 27.6174 29.5 27.75 29.5H32.25C32.3826 29.5 32.5098 29.5527 32.6036 29.6464C32.6973 29.7402 32.75 29.8674 32.75 30C32.75 30.1326 32.6973 30.2598 32.6036 30.3536C32.5098 30.4473 32.3826 30.5 32.25 30.5H27.75C27.6174 30.5 27.4902 30.4473 27.3964 30.3536C27.3027 30.2598 27.25 30.1326 27.25 30ZM35.25 28.5H27.75C27.6174 28.5 27.4902 28.4473 27.3964 28.3536C27.3027 28.2598 27.25 28.1326 27.25 28C27.25 27.8674 27.3027 27.7402 27.3964 27.6464C27.4902 27.5527 27.6174 27.5 27.75 27.5H35.25C35.3826 27.5 35.5098 27.5527 35.6036 27.6464C35.6973 27.7402 35.75 27.8674 35.75 28C35.75 28.1326 35.6973 28.2598 35.6036 28.3536C35.5098 28.4473 35.3826 28.5 35.25 28.5ZM27.25 23.5C27.25 23.3674 27.3027 23.2402 27.3964 23.1464C27.4902 23.0527 27.6174 23 27.75 23H32.25C32.3826 23 32.5098 23.0527 32.6036 23.1464C32.6973 23.2402 32.75 23.3674 32.75 23.5C32.75 23.6326 32.6973 23.7598 32.6036 23.8536C32.5098 23.9473 32.3826 24 32.25 24H27.75C27.6174 24 27.4902 23.9473 27.3964 23.8536C27.3027 23.7598 27.25 23.6326 27.25 23.5ZM35.75 21.5C35.75 21.6326 35.6973 21.7598 35.6036 21.8536C35.5098 21.9473 35.3826 22 35.25 22H27.75C27.6174 22 27.4902 21.9473 27.3964 21.8536C27.3027 21.7598 27.25 21.6326 27.25 21.5C27.25 21.3674 27.3027 21.2402 27.3964 21.1464C27.4902 21.0527 27.6174 21 27.75 21H35.25C35.3826 21 35.5098 21.0527 35.6036 21.1464C35.6973 21.2402 35.75 21.3674 35.75 21.5Z" fill="#0FC221" fill-opacity="0.2"/>
<path d="M32.75 11.5H29.75V10C29.75 9.60218 29.592 9.22064 29.3107 8.93934C29.0294 8.65804 28.6478 8.5 28.25 8.5H27.25C26.8522 8.5 26.4706 8.65804 26.1893 8.93934C25.908 9.22064 25.75 9.60218 25.75 10V11.5H17.75V10C17.75 9.60218 17.592 9.22064 17.3107 8.93934C17.0294 8.65804 16.6478 8.5 16.25 8.5H15.25C14.8522 8.5 14.4706 8.65804 14.1893 8.93934C13.908 9.22064 13.75 9.60218 13.75 10V11.5H10.75C10.3522 11.5 9.97064 11.658 9.68934 11.9393C9.40804 12.2206 9.25 12.6022 9.25 13V32C9.25 32.3978 9.40804 32.7794 9.68934 33.0607C9.97064 33.342 10.3522 33.5 10.75 33.5H32.75C33.1478 33.5 33.5294 33.342 33.8107 33.0607C34.092 32.7794 34.25 32.3978 34.25 32V13C34.25 12.6022 34.092 12.2206 33.8107 11.9393C33.5294 11.658 33.1478 11.5 32.75 11.5ZM26.75 10C26.75 9.86739 26.8027 9.74021 26.8964 9.64645C26.9902 9.55268 27.1174 9.5 27.25 9.5H28.25C28.3826 9.5 28.5098 9.55268 28.6036 9.64645C28.6973 9.74021 28.75 9.86739 28.75 10V14C28.75 14.1326 28.6973 14.2598 28.6036 14.3536C28.5098 14.4473 28.3826 14.5 28.25 14.5H27.25C27.1174 14.5 26.9902 14.4473 26.8964 14.3536C26.8027 14.2598 26.75 14.1326 26.75 14V10ZM14.75 10C14.75 9.86739 14.8027 9.74021 14.8964 9.64645C14.9902 9.55268 15.1174 9.5 15.25 9.5H16.25C16.3826 9.5 16.5098 9.55268 16.6036 9.64645C16.6973 9.74021 16.75 9.86739 16.75 10V14C16.75 14.1326 16.6973 14.2598 16.6036 14.3536C16.5098 14.4473 16.3826 14.5 16.25 14.5H15.25C15.1174 14.5 14.9902 14.4473 14.8964 14.3536C14.8027 14.2598 14.75 14.1326 14.75 14V10ZM10.75 12.5H13.75V14C13.75 14.3978 13.908 14.7794 14.1893 15.0607C14.4706 15.342 14.8522 15.5 15.25 15.5H16.25C16.6478 15.5 17.0294 15.342 17.3107 15.0607C17.592 14.7794 17.75 14.3978 17.75 14V12.5H25.75V14C25.75 14.3978 25.908 14.7794 26.1893 15.0607C26.4706 15.342 26.8522 15.5 27.25 15.5H28.25C28.6478 15.5 29.0294 15.342 29.3107 15.0607C29.592 14.7794 29.75 14.3978 29.75 14V12.5H32.75C32.8826 12.5 33.0098 12.5527 33.1036 12.6464C33.1973 12.7402 33.25 12.8674 33.25 13V17.5H10.25V13C10.25 12.8674 10.3027 12.7402 10.3964 12.6464C10.4902 12.5527 10.6174 12.5 10.75 12.5ZM32.75 32.5H10.75C10.6174 32.5 10.4902 32.4473 10.3964 32.3536C10.3027 32.2598 10.25 32.1326 10.25 32V18.5H33.25V32C33.25 32.1326 33.1973 32.2598 33.1036 32.3536C33.0098 32.4473 32.8826 32.5 32.75 32.5Z" fill="#353535"/>
<path d="M29.75 22H24.25C23.8522 22 23.4706 22.158 23.1893 22.4393C22.908 22.7206 22.75 23.1022 22.75 23.5V29C22.75 29.3978 22.908 29.7794 23.1893 30.0607C23.4706 30.342 23.8522 30.5 24.25 30.5H29.75C30.1478 30.5 30.5294 30.342 30.8107 30.0607C31.092 29.7794 31.25 29.3978 31.25 29V23.5C31.25 23.1022 31.092 22.7206 30.8107 22.4393C30.5294 22.158 30.1478 22 29.75 22ZM30.25 29C30.25 29.1326 30.1973 29.2598 30.1036 29.3536C30.0098 29.4473 29.8826 29.5 29.75 29.5H24.25C24.1174 29.5 23.9902 29.4473 23.8964 29.3536C23.8027 29.2598 23.75 29.1326 23.75 29V23.5C23.75 23.3674 23.8027 23.2402 23.8964 23.1464C23.9902 23.0527 24.1174 23 24.25 23H29.75C29.8826 23 30.0098 23.0527 30.1036 23.1464C30.1973 23.2402 30.25 23.3674 30.25 23.5V29Z" fill="#353535"/>
<path d="M16.25 20.5H13.75C13.3522 20.5 12.9706 20.658 12.6893 20.9393C12.408 21.2206 12.25 21.6022 12.25 22V24.5C12.25 24.8978 12.408 25.2794 12.6893 25.5607C12.9706 25.842 13.3522 26 13.75 26H16.25C16.6478 26 17.0294 25.842 17.3107 25.5607C17.592 25.2794 17.75 24.8978 17.75 24.5V22C17.75 21.6022 17.592 21.2206 17.3107 20.9393C17.0294 20.658 16.6478 20.5 16.25 20.5ZM16.75 24.5C16.75 24.6326 16.6973 24.7598 16.6036 24.8536C16.5098 24.9473 16.3826 25 16.25 25H13.75C13.6174 25 13.4902 24.9473 13.3964 24.8536C13.3027 24.7598 13.25 24.6326 13.25 24.5V22C13.25 21.8674 13.3027 21.7402 13.3964 21.6464C13.4902 21.5527 13.6174 21.5 13.75 21.5H16.25C16.3826 21.5 16.5098 21.5527 16.6036 21.6464C16.6973 21.7402 16.75 21.8674 16.75 22V24.5Z" fill="#353535"/>
</svg>
