<svg width="96" height="96" viewBox="0 0 96 96" fill="none" xmlns="http://www.w3.org/2000/svg">
<path d="M39.6802 66.8252C54.879 66.8252 67.2002 54.504 67.2002 39.3052C67.2002 24.1063 54.879 11.7852 39.6802 11.7852C24.4813 11.7852 12.1602 24.1063 12.1602 39.3052C12.1602 54.504 24.4813 66.8252 39.6802 66.8252Z" fill="#FFDCDE"/>
<path d="M80.0002 25.8655C77.8827 25.8655 76.1602 24.143 76.1602 22.0255C76.1602 19.9081 77.8827 18.1855 80.0002 18.1855C82.1176 18.1855 83.8402 19.9081 83.8402 22.0255C83.8402 24.143 82.1176 25.8655 80.0002 25.8655ZM80.0002 20.7455C79.2939 20.7455 78.7202 21.3193 78.7202 22.0255C78.7202 22.7318 79.2939 23.3055 80.0002 23.3055C80.7064 23.3055 81.2802 22.7318 81.2802 22.0255C81.2802 21.3193 80.7064 20.7455 80.0002 20.7455Z" fill="#F6515B"/>
<path d="M14.7202 39.9457C15.4271 39.9457 16.0002 39.3727 16.0002 38.6657C16.0002 37.9588 15.4271 37.3857 14.7202 37.3857C14.0133 37.3857 13.4402 37.9588 13.4402 38.6657C13.4402 39.3727 14.0133 39.9457 14.7202 39.9457Z" fill="#F6515B"/>
<path d="M42.1302 16.1553C41.8028 16.1553 41.4751 16.0301 41.2252 15.7802L37.6053 12.1604C37.1055 11.6605 37.1055 10.8503 37.6053 10.3505C38.1052 9.85063 38.9154 9.85063 39.4153 10.3505L43.0351 13.9703C43.535 14.4701 43.535 15.2804 43.0351 15.7802C42.7852 16.0305 42.4578 16.1553 42.1302 16.1553Z" fill="#F6515B"/>
<path d="M38.5103 16.1553C38.183 16.1553 37.8553 16.0301 37.6053 15.7802C37.1055 15.2804 37.1055 14.4701 37.6053 13.9703L41.2252 10.3505C41.725 9.85063 42.5353 9.85063 43.0351 10.3505C43.535 10.8503 43.535 11.6605 43.0351 12.1604L39.4153 15.7802C39.1653 16.0305 38.8377 16.1553 38.5103 16.1553Z" fill="#F6515B"/>
<path d="M68.9916 84.7454H28.2889C27.1574 84.7454 26.2402 83.8282 26.2402 82.6967V30.9854H71.0402V82.6967C71.0402 83.8282 70.1231 84.7454 68.9916 84.7454Z" fill="#F5F5F5"/>
<path d="M68.9916 86.0251H28.2888C26.454 86.0251 24.9602 84.5313 24.9602 82.6964V30.9851C24.9602 30.2776 25.5327 29.7051 26.2402 29.7051H71.0402C71.7477 29.7051 72.3202 30.2776 72.3202 30.9851V82.6964C72.3202 84.5313 70.8264 86.0251 68.9916 86.0251ZM27.5202 32.2651V82.6964C27.5202 83.1201 27.8652 83.4651 28.2888 83.4651H68.9912C69.4149 83.4651 69.7599 83.1201 69.7599 82.6964V32.2651H27.5202Z" fill="#F6515B"/>
<path d="M37.1202 80.906C36.0597 80.906 35.2002 80.0465 35.2002 78.986V40.586C35.2002 39.5255 36.0597 38.666 37.1202 38.666C38.1807 38.666 39.0402 39.5255 39.0402 40.586V78.986C39.0402 80.0465 38.1807 80.906 37.1202 80.906Z" fill="#113255"/>
<path d="M37.1202 82.1857C35.355 82.1857 33.9202 80.7509 33.9202 78.9857V40.5857C33.9202 38.8206 35.355 37.3857 37.1202 37.3857C38.8853 37.3857 40.3202 38.8206 40.3202 40.5857V78.9857C40.3202 80.7509 38.8853 82.1857 37.1202 82.1857ZM37.1202 39.9457C36.7675 39.9457 36.4802 40.2331 36.4802 40.5857V78.9857C36.4802 79.3384 36.7675 79.6257 37.1202 79.6257C37.4728 79.6257 37.7602 79.3384 37.7602 78.9857V40.5857C37.7602 40.2334 37.4728 39.9457 37.1202 39.9457Z" fill="#F6515B"/>
<path d="M48.6402 80.906C47.5797 80.906 46.7202 80.0465 46.7202 78.986V40.586C46.7202 39.5255 47.5797 38.666 48.6402 38.666C49.7007 38.666 50.5602 39.5255 50.5602 40.586V78.986C50.5602 80.0465 49.7007 80.906 48.6402 80.906Z" fill="#113255"/>
<path d="M48.6402 82.1857C46.8751 82.1857 45.4402 80.7509 45.4402 78.9857V40.5857C45.4402 38.8206 46.8751 37.3857 48.6402 37.3857C50.4053 37.3857 51.8402 38.8206 51.8402 40.5857V78.9857C51.8402 80.7509 50.4053 82.1857 48.6402 82.1857ZM48.6402 39.9457C48.2875 39.9457 48.0002 40.2331 48.0002 40.5857V78.9857C48.0002 79.3384 48.2875 79.6257 48.6402 79.6257C48.9928 79.6257 49.2802 79.3384 49.2802 78.9857V40.5857C49.2802 40.2334 48.9928 39.9457 48.6402 39.9457Z" fill="#F6515B"/>
<path d="M60.1602 80.906C59.0998 80.906 58.2402 80.0465 58.2402 78.986V40.586C58.2402 39.5255 59.0998 38.666 60.1602 38.666C61.2207 38.666 62.0802 39.5255 62.0802 40.586V78.986C62.0802 80.0465 61.2207 80.906 60.1602 80.906Z" fill="#113255"/>
<path d="M60.1602 82.1857C58.3951 82.1857 56.9602 80.7509 56.9602 78.9857V40.5857C56.9602 38.8206 58.3951 37.3857 60.1602 37.3857C61.9253 37.3857 63.3602 38.8206 63.3602 40.5857V78.9857C63.3602 80.7509 61.9253 82.1857 60.1602 82.1857ZM60.1602 39.9457C59.8076 39.9457 59.5202 40.2331 59.5202 40.5857V78.9857C59.5202 79.3384 59.8076 79.6257 60.1602 79.6257C60.5128 79.6257 60.8002 79.3384 60.8002 78.9857V40.5857C60.8002 40.2334 60.5128 39.9457 60.1602 39.9457Z" fill="#F6515B"/>
<path d="M59.5202 32.2651H37.7602C37.0527 32.2651 36.4802 31.6926 36.4802 30.9851V26.5077C36.4802 23.3301 39.0652 20.7451 42.2428 20.7451H55.0377C58.2153 20.7451 60.8002 23.3301 60.8002 26.5077V30.9851C60.8002 31.6926 60.2277 32.2651 59.5202 32.2651ZM39.0402 29.7051H58.2402V26.5077C58.2402 24.7413 56.8041 23.3051 55.0377 23.3051H42.2428C40.4764 23.3051 39.0402 24.7413 39.0402 26.5077V29.7051Z" fill="#F6515B"/>
<path d="M22.4001 30.9854H74.8801V34.8254H22.4001V30.9854Z" fill="#F5F5F5"/>
<path d="M74.8801 36.1051H22.4001C21.6926 36.1051 21.1201 35.5326 21.1201 34.8251V30.9851C21.1201 30.2776 21.6926 29.7051 22.4001 29.7051H74.8801C75.5876 29.7051 76.1601 30.2776 76.1601 30.9851V34.8251C76.1601 35.5326 75.5876 36.1051 74.8801 36.1051ZM23.6801 33.5451H73.6001V32.2651H23.6801V33.5451Z" fill="#F6515B"/>
</svg>
