<svg width="128" height="128" viewBox="0 0 128 128" fill="none" xmlns="http://www.w3.org/2000/svg">
<circle cx="64" cy="64" r="64" fill="black"/>
<path d="M32 56L62.816 75.612C63.168 75.872 63.584 76 64 76C64.416 76 64.832 75.872 65.184 75.612L96 56L65.2 32.4C64.488 31.868 63.512 31.868 62.8 32.4L32 56Z" fill="#CCF1FF"/>
<path d="M84 32H44C41.796 32 40 33.796 40 36V80C40 81.104 40.896 82 42 82H86C87.104 82 88 81.104 88 80V36C88 33.796 86.208 32 84 32Z" fill="#F5F5F5"/>
<path d="M50 44H78C79.104 44 80 43.104 80 42C80 40.896 79.104 40 78 40H50C48.896 40 48 40.896 48 42C48 43.104 48.896 44 50 44Z" fill="#02BAFF"/>
<path d="M78 48H50C48.896 48 48 48.896 48 50C48 51.104 48.896 52 50 52H78C79.104 52 80 51.104 80 50C80 48.896 79.104 48 78 48Z" fill="#02BAFF"/>
<path d="M66 56H50C48.896 56 48 56.896 48 58C48 59.104 48.896 60 50 60H66C67.104 60 68 59.104 68 58C68 56.896 67.104 56 66 56Z" fill="#02BAFF"/>
<path d="M65.184 75.612C64.832 75.872 64.416 76 64 76C63.584 76 63.168 75.872 62.816 75.612L32 56V92C32 94.208 33.792 96 36 96H92C94.208 96 96 94.208 96 92V56L65.184 75.612Z" fill="#02BAFF"/>
<path d="M92 96H36C33.756 96 32 94.244 32 92C32 91.364 32.304 90.764 32.816 90.388L62.816 70.388C63.168 70.128 63.584 70 64 70C64.416 70 64.832 70.128 65.184 70.388L95.184 90.388C95.696 90.764 96 91.364 96 92C96 94.244 94.244 96 92 96Z" fill="#00B6FF"/>
</svg>
