<svg width="512" height="512" viewBox="0 0 512 512" fill="none" xmlns="http://www.w3.org/2000/svg">
<g clip-path="url(#clip0)">
<path d="M512 190.586V480.129H122.664C116.143 480.129 110.868 474.844 110.868 468.333V150.698C110.868 144.177 116.143 138.902 122.664 138.902H265.715C268.836 138.902 271.834 140.138 274.049 142.353L307.035 175.339C309.25 177.554 312.248 178.79 315.379 178.79H500.204C506.715 178.791 512 184.076 512 190.586V190.586Z" fill="black"/>
<path d="M324.065 236.301C339.946 236.301 352.82 223.427 352.82 207.546C352.82 191.665 339.946 178.791 324.065 178.791C308.184 178.791 295.31 191.665 295.31 207.546C295.31 223.427 308.184 236.301 324.065 236.301Z" fill="#5B5555"/>
<path d="M218.512 275.422C223.704 280.604 220.037 289.484 212.692 289.484H121.892C118.173 289.484 114.495 289.298 110.869 288.948V150.698C110.869 144.177 116.144 138.902 122.665 138.902H225.178C229.958 151.274 232.585 164.729 232.585 178.791C232.585 209.357 220.192 237.027 200.165 257.064L218.512 275.422Z" fill="#5B5555"/>
<path d="M512 190.586V480.129H472.832V190.586C472.832 184.075 467.557 178.79 461.036 178.79H500.203C506.715 178.791 512 184.076 512 190.586Z" fill="#5B5555"/>
<path d="M391.699 332.216L512 480.132H116.473C112.923 480.132 109.563 478.533 107.323 475.779L2.66607 347.099C-3.60193 339.392 1.88207 327.863 11.8161 327.863H382.548C386.099 327.863 389.46 329.462 391.699 332.216V332.216Z" fill="#64B9FC"/>
<path d="M512 480.129H461.274L340.98 332.216C338.734 329.465 335.376 327.858 331.832 327.858H382.548C386.102 327.858 389.46 329.465 391.696 332.216L512 480.129Z" fill="#31A7FB"/>
<path d="M422.426 445.438H318.359C315.142 445.438 312.11 443.935 310.161 441.375L283.491 406.332C280.91 402.941 283.329 398.062 287.59 398.062H391.657C394.874 398.062 397.906 399.565 399.855 402.125L426.525 437.168C429.106 440.558 426.688 445.438 422.426 445.438Z" fill="#F8F3F1"/>
<path d="M422.426 445.435H388.945C393.21 445.435 395.631 440.562 393.045 437.163L366.374 402.127C364.427 399.562 361.398 398.058 358.184 398.058H391.655C394.879 398.058 397.908 399.562 399.855 402.127L426.526 437.163C429.101 440.563 426.691 445.435 422.426 445.435Z" fill="#F0FBFF"/>
<path d="M256 453.162H208.728C204.461 453.162 201.002 449.703 201.002 445.436C201.002 441.169 204.461 437.71 208.728 437.71H256C260.267 437.71 263.726 441.169 263.726 445.436C263.726 449.703 260.267 453.162 256 453.162Z" fill="#F8F3F1"/>
<path d="M238.749 427.535H218.684C214.417 427.535 210.958 424.076 210.958 419.809C210.958 415.542 214.417 412.083 218.684 412.083H238.749C243.016 412.083 246.475 415.542 246.475 419.809C246.476 424.076 243.017 427.535 238.749 427.535Z" fill="#F8F3F1"/>
<path d="M232.583 142.561C232.583 81.4272 183.024 31.8682 121.891 31.8682C60.8143 31.8682 11.1973 81.4852 11.1973 142.562C11.1983 203.696 60.7563 253.254 121.89 253.254H212.69C220.031 253.254 223.708 244.378 218.517 239.187L200.162 220.832C220.194 200.802 232.583 173.128 232.583 142.561V142.561Z" fill="#31A7FB"/>
<path d="M218.512 239.191C223.704 244.383 220.037 253.253 212.692 253.253H175.358C182.693 253.253 186.371 244.383 181.178 239.191L169.796 227.803C166.01 224.015 165.77 217.969 169.222 213.874C185.46 194.614 195.25 169.726 195.25 142.56C195.25 87.7958 155.475 42.3128 103.234 33.4428C108.289 32.5758 113.459 32.0598 118.72 31.9108C180.625 30.1668 231.538 78.7528 232.568 140.674C233.089 171.985 220.601 200.394 200.164 220.832L218.512 239.191Z" fill="#02BAFF"/>
<path d="M143.743 142.562L164.334 121.971C170.369 115.936 170.369 106.152 164.334 100.118C158.3 94.0831 148.515 94.0831 142.481 100.118L121.89 120.709L101.3 100.117C95.2662 94.0821 85.4811 94.0821 79.4471 100.117C73.4121 106.151 73.4121 115.935 79.4471 121.97L100.038 142.561L79.4471 163.152C73.4121 169.187 73.4121 178.971 79.4471 185.005C82.4641 188.023 86.4192 189.531 90.3742 189.531C94.3292 189.531 98.2832 188.022 101.301 185.005L121.892 164.414L142.483 185.005C145.501 188.023 149.454 189.531 153.41 189.531C157.364 189.531 161.319 188.022 164.337 185.005C170.372 178.971 170.372 169.187 164.337 163.152L143.743 142.562Z" fill="#F8F3F1"/>
<path d="M324.065 211.961C339.946 211.961 352.82 199.087 352.82 183.206C352.82 167.325 339.946 154.451 324.065 154.451C308.184 154.451 295.31 167.325 295.31 183.206C295.31 199.087 308.184 211.961 324.065 211.961Z" fill="#0FC221"/>
<path d="M352.818 183.203C352.818 199.09 339.94 211.968 324.066 211.968C318.744 211.968 313.751 210.522 309.48 207.986C320.768 205.384 329.178 195.279 329.178 183.203C329.178 171.14 320.781 161.022 309.493 158.42C313.764 155.897 318.744 154.452 324.066 154.452C339.941 154.451 352.818 167.329 352.818 183.203V183.203Z" fill="#99D53B"/>
<path d="M424.77 148.728C437.303 148.728 447.462 138.568 447.462 126.036C447.462 113.503 437.303 103.344 424.77 103.344C412.238 103.344 402.078 113.503 402.078 126.036C402.078 138.568 412.238 148.728 424.77 148.728Z" fill="#0FC221"/>
<path d="M447.46 126.034C447.46 138.571 437.298 148.733 424.771 148.733C420.571 148.733 416.631 147.592 413.26 145.591C422.168 143.538 428.804 135.563 428.804 126.034C428.804 116.514 422.178 108.53 413.27 106.476C416.64 104.485 420.57 103.344 424.77 103.344C437.298 103.344 447.46 113.507 447.46 126.034V126.034Z" fill="#99D53B"/>
<path d="M372.92 84.5599L377.1 80.3799C380.118 77.3619 380.118 72.471 377.1 69.453C374.083 66.436 369.191 66.436 366.173 69.453L361.993 73.633L357.813 69.453C354.796 66.435 349.904 66.435 346.886 69.453C343.868 72.47 343.868 77.3619 346.886 80.3799L351.066 84.5599L346.886 88.7399C343.868 91.7579 343.868 96.649 346.886 99.667C348.395 101.176 350.372 101.93 352.349 101.93C354.326 101.93 356.304 101.175 357.812 99.667L361.992 95.4869L366.172 99.667C367.681 101.176 369.658 101.93 371.635 101.93C373.612 101.93 375.59 101.175 377.098 99.667C380.116 96.65 380.116 91.7579 377.098 88.7399L372.92 84.5599Z" fill="#64B9FC"/>
<path d="M57.8503 259.965C54.8333 256.948 49.9413 256.948 46.9233 259.965L39.6453 267.243L32.3673 259.965C29.3503 256.948 24.4583 256.948 21.4403 259.965C18.4223 262.982 18.4223 267.874 21.4403 270.892L28.7183 278.17L21.4403 285.448C18.4223 288.465 18.4223 293.357 21.4403 296.375C22.9493 297.884 24.9263 298.638 26.9033 298.638C28.8803 298.638 30.8583 297.883 32.3663 296.375L39.6443 289.097L46.9223 296.375C48.4313 297.884 50.4083 298.638 52.3853 298.638C54.3623 298.638 56.3403 297.883 57.8483 296.375C60.8663 293.358 60.8663 288.466 57.8483 285.448L50.5703 278.17L57.8483 270.892C60.8673 267.874 60.8673 262.982 57.8503 259.965V259.965Z" fill="#0088B2"/>
</g>
<defs>
<clipPath id="clip0">
<rect width="512" height="512" fill="white"/>
</clipPath>
</defs>
</svg>
