<svg width="96" height="96" viewBox="0 0 96 96" fill="none" xmlns="http://www.w3.org/2000/svg">
<path d="M1.50783 19.8397C1.50782 27.2026 7.4767 33.1715 14.8397 33.1715C22.2027 33.1715 28.1715 27.2027 28.1715 19.8397C28.1715 12.4767 22.2027 6.50781 14.8397 6.50781C7.47671 6.50781 1.50783 12.4767 1.50783 19.8397Z" fill="#F5F5F5"/>
<path d="M79.9858 43.0166C79.9858 45.9768 82.3855 48.3765 85.3457 48.3765C88.3059 48.3765 90.7056 45.9768 90.7056 43.0166C90.7056 40.0564 88.3059 37.6567 85.3457 37.6567C82.3856 37.6567 79.9858 40.0564 79.9858 43.0166Z" fill="#F5F5F5"/>
<path d="M88.148 60.8733C88.1479 62.3534 89.3478 63.5532 90.8279 63.5532C92.308 63.5532 93.5078 62.3534 93.5078 60.8733C93.5078 59.3932 92.308 58.1934 90.8279 58.1934C89.3478 58.1934 88.148 59.3932 88.148 60.8733Z" fill="#FF7946"/>
<path d="M10.8574 40.0305C10.8574 41.5106 12.0573 42.7105 13.5374 42.7105C15.0175 42.7105 16.2173 41.5106 16.2173 40.0305C16.2173 38.5504 15.0175 37.3506 13.5374 37.3506C12.0573 37.3506 10.8574 38.5504 10.8574 40.0305Z" fill="#F6515B"/>
<path fill-rule="evenodd" clip-rule="evenodd" d="M80.1781 50.2982C80.1781 68.7974 65.1811 83.7933 46.6831 83.7933C28.184 83.7933 13.1875 68.7974 13.1875 50.2982C13.1875 31.7991 28.184 16.8032 46.6831 16.8032C65.1811 16.8032 80.1781 31.7991 80.1781 50.2982Z" fill="#CCF1FF"/>
<mask id="mask0" mask-type="alpha" maskUnits="userSpaceOnUse" x="13" y="16" width="68" height="68">
<path d="M46.6835 16.8037C28.1839 16.8037 13.188 31.7996 13.188 50.2982C13.188 68.7979 28.1839 83.7938 46.6835 83.7938C65.1821 83.7938 80.1786 68.7979 80.1786 50.2982C80.1786 31.7996 65.1821 16.8037 46.6835 16.8037Z" fill="white"/>
</mask>
<g mask="url(#mask0)">
<path fill-rule="evenodd" clip-rule="evenodd" d="M64.4501 47.8325V88.1371C64.4501 88.7282 63.6827 89.0275 63.2604 88.6138L60.8013 85.7599L58.2111 88.3496C57.695 88.8657 56.8596 88.8711 56.3371 88.3614L53.6644 85.7599L51.1276 88.3302C50.6098 88.8544 49.7648 88.8597 49.2406 88.3415L46.6272 85.7599L43.9901 88.3577C43.4702 88.8689 42.636 88.8689 42.1172 88.3566L39.4844 85.7599L36.8591 88.3496C36.3371 88.8646 35.4975 88.8614 34.9792 88.3431L32.3949 85.7599L29.9984 88.6473C29.5777 89.0658 28.916 88.7681 28.916 88.1743V47.8325H64.4501Z" fill="#F5F5F5"/>
<path fill-rule="evenodd" clip-rule="evenodd" d="M28.8604 47.7065H64.5055V45.6125C64.5055 44.8758 63.908 44.2788 63.1713 44.2788H30.1945C29.4573 44.2788 28.8604 44.8758 28.8604 45.6125V47.7065Z" fill="#02BAFF"/>
<path fill-rule="evenodd" clip-rule="evenodd" d="M56.8208 58.5572C57.0661 58.5572 57.2651 58.3582 57.2651 58.1128V55.4444C57.2651 55.1985 57.0661 54.9995 56.8208 54.9995H54.1529C53.907 54.9995 53.708 55.1985 53.708 55.4444V58.1128C53.708 58.3582 53.907 58.5572 54.1529 58.5572H56.8208Z" fill="#F6515B"/>
<path fill-rule="evenodd" clip-rule="evenodd" d="M32.6853 63.8494H60.4451C60.6236 63.8494 60.7675 63.7048 60.7675 63.5263V62.3938C60.7675 62.2153 60.6236 62.0708 60.4451 62.0708H32.6853C32.5074 62.0708 32.3623 62.2153 32.3623 62.3938V63.5263C32.3623 63.7048 32.5074 63.8494 32.6853 63.8494Z" fill="#CCF1FF"/>
<path fill-rule="evenodd" clip-rule="evenodd" d="M32.6853 69.1418H60.4451C60.6236 69.1418 60.7675 68.9973 60.7675 68.8188V67.6863C60.7675 67.5078 60.6236 67.3633 60.4451 67.3633H32.6853C32.5074 67.3633 32.3623 67.5078 32.3623 67.6863V68.8188C32.3623 68.9973 32.5074 69.1418 32.6853 69.1418Z" fill="#FF7946"/>
<path fill-rule="evenodd" clip-rule="evenodd" d="M32.6853 74.4343H60.4451C60.6236 74.4343 60.7675 74.2898 60.7675 74.1113V72.9788C60.7675 72.8003 60.6236 72.6558 60.4451 72.6558H32.6853C32.5074 72.6558 32.3623 72.8003 32.3623 72.9788V74.1113C32.3623 74.2898 32.5074 74.4343 32.6853 74.4343Z" fill="#F6515B"/>
<path fill-rule="evenodd" clip-rule="evenodd" d="M28.9517 51.467H44.3747V40.2612H28.9517V51.467Z" fill="black"/>
<path fill-rule="evenodd" clip-rule="evenodd" d="M28.9517 57.0047H44.3747V53.3203H28.9517V57.0047Z" fill="black"/>
<path fill-rule="evenodd" clip-rule="evenodd" d="M50.2044 42.2919H23.1226L36.664 28.751L50.2044 42.2919Z" fill="black"/>
</g>
<path fill-rule="evenodd" clip-rule="evenodd" d="M73.4601 17.2837C66.3529 17.2837 60.5913 23.0452 60.5913 30.1525C60.5913 37.2597 66.3529 43.0213 73.4601 43.0213C80.5674 43.0213 86.3289 37.2597 86.3289 30.1525C86.3289 23.0452 80.5674 17.2837 73.4601 17.2837Z" fill="#0FC221"/>
<path fill-rule="evenodd" clip-rule="evenodd" d="M71.3862 34.524L70.5737 33.7115L78.4467 25.8098C78.7159 25.5406 79.1524 25.5406 79.4217 25.8098L79.7467 26.1348C80.0159 26.404 80.0159 26.8406 79.7467 27.1098L72.3611 34.524C72.0919 34.7932 71.6554 34.7932 71.3862 34.524Z" fill="white"/>
<path fill-rule="evenodd" clip-rule="evenodd" d="M73.1723 33.7112L72.3598 34.5237C72.0906 34.7929 71.6541 34.7929 71.3849 34.5237L68.1497 31.2885C67.8804 31.0193 67.8804 30.5828 68.1497 30.3135L68.4747 29.9886C68.7439 29.7193 69.1804 29.7193 69.4496 29.9886L73.1723 33.7112Z" fill="white"/>
</svg>
