<svg width="48" height="48" viewBox="0 0 48 48" fill="none" xmlns="http://www.w3.org/2000/svg">
<rect width="48" height="48" rx="24" fill="#F5F5F5"/>
<path d="M38 32.5H36.35L33.35 35.5H36C36.1326 35.5 36.2598 35.5527 36.3536 35.6464C36.4473 35.7402 36.5 35.8674 36.5 36C36.5 36.1326 36.4473 36.2598 36.3536 36.3536C36.2598 36.4473 36.1326 36.5 36 36.5H32.35L31.7685 37.0815C31.2997 37.55 30.664 37.8132 30.0012 37.8132C29.3385 37.8132 28.7028 37.55 28.234 37.0815L27.65 36.5H24C23.8674 36.5 23.7402 36.4473 23.6464 36.3536C23.5527 36.2598 23.5 36.1326 23.5 36C23.5 35.8674 23.5527 35.7402 23.6464 35.6464C23.7402 35.5527 23.8674 35.5 24 35.5H26.65L23.65 32.5H22C21.6022 32.5 21.2206 32.658 20.9393 32.9393C20.658 33.2206 20.5 33.6022 20.5 34V38C20.5 38.3978 20.658 38.7794 20.9393 39.0607C21.2206 39.342 21.6022 39.5 22 39.5H38C38.3978 39.5 38.7794 39.342 39.0607 39.0607C39.342 38.7794 39.5 38.3978 39.5 38V34C39.5 33.6022 39.342 33.2206 39.0607 32.9393C38.7794 32.658 38.3978 32.5 38 32.5Z" fill="#EDAB03" fill-opacity="0.2"/>
<path d="M30 14.5C27.4804 14.5 25.0641 15.5009 23.2825 17.2825C21.5009 19.0641 20.5 21.4804 20.5 24C20.5 29.8785 25.13 31.9345 28.9395 36.375C29.2212 36.6553 29.6025 36.8127 30 36.8127C30.3975 36.8127 30.7788 36.6553 31.0605 36.375C34.8725 31.931 39.5 29.8795 39.5 24C39.5005 22.7523 39.2552 21.5167 38.7779 20.3639C38.3007 19.2111 37.6009 18.1636 36.7187 17.2813C35.8364 16.3991 34.7889 15.6993 33.6361 15.2221C32.4833 14.7448 31.2477 14.4995 30 14.5V14.5ZM30 27.5C29.3078 27.5 28.6311 27.2947 28.0555 26.9101C27.4799 26.5256 27.0313 25.9789 26.7664 25.3394C26.5015 24.6998 26.4322 23.9961 26.5673 23.3172C26.7023 22.6382 27.0356 22.0146 27.5251 21.5251C28.0146 21.0356 28.6383 20.7023 29.3172 20.5672C29.9961 20.4322 30.6999 20.5015 31.3394 20.7664C31.9789 21.0313 32.5256 21.4799 32.9101 22.0555C33.2947 22.6311 33.5 23.3078 33.5 24C33.4988 24.9279 33.1297 25.8174 32.4736 26.4736C31.8174 27.1297 30.9279 27.4988 30 27.5ZM37 24.5C36.8674 24.5 36.7402 24.4473 36.6464 24.3535C36.5527 24.2598 36.5 24.1326 36.5 24C36.5005 23.1463 36.3326 22.3008 36.0062 21.512C35.6797 20.7232 35.2009 20.0064 34.5972 19.4028C33.9935 18.7991 33.2768 18.3203 32.488 17.9938C31.6992 17.6674 30.8537 17.4995 30 17.5C29.8674 17.5 29.7402 17.4473 29.6464 17.3536C29.5527 17.2598 29.5 17.1326 29.5 17C29.5 16.8674 29.5527 16.7402 29.6464 16.6464C29.7402 16.5527 29.8674 16.5 30 16.5C30.985 16.4995 31.9605 16.6932 32.8707 17.07C33.7808 17.4467 34.6078 17.9991 35.3043 18.6957C36.0009 19.3922 36.5533 20.2192 36.93 21.1293C37.3068 22.0395 37.5005 23.015 37.5 24C37.5 24.1326 37.4473 24.2598 37.3536 24.3535C37.2598 24.4473 37.1326 24.5 37 24.5Z" fill="#EDAB03" fill-opacity="0.2"/>
<path d="M32 8.5H10C9.60218 8.5 9.22064 8.65804 8.93934 8.93934C8.65804 9.22064 8.5 9.60218 8.5 10V32C8.5 32.3978 8.65804 32.7794 8.93934 33.0607C9.22064 33.342 9.60218 33.5 10 33.5H32C32.3978 33.5 32.7794 33.342 33.0607 33.0607C33.342 32.7794 33.5 32.3978 33.5 32V10C33.5 9.60218 33.342 9.22064 33.0607 8.93934C32.7794 8.65804 32.3978 8.5 32 8.5V8.5ZM18.5 9.5H23.5V14C23.5 14.1326 23.4473 14.2598 23.3536 14.3536C23.2598 14.4473 23.1326 14.5 23 14.5H19C18.8674 14.5 18.7402 14.4473 18.6464 14.3536C18.5527 14.2598 18.5 14.1326 18.5 14V9.5ZM32.5 32C32.5 32.1326 32.4473 32.2598 32.3536 32.3536C32.2598 32.4473 32.1326 32.5 32 32.5H10C9.86739 32.5 9.74021 32.4473 9.64645 32.3536C9.55268 32.2598 9.5 32.1326 9.5 32V10C9.5 9.86739 9.55268 9.74021 9.64645 9.64645C9.74021 9.55268 9.86739 9.5 10 9.5H17.5V14C17.5 14.3978 17.658 14.7794 17.9393 15.0607C18.2206 15.342 18.6022 15.5 19 15.5H23C23.3978 15.5 23.7794 15.342 24.0607 15.0607C24.342 14.7794 24.5 14.3978 24.5 14V9.5H32C32.1326 9.5 32.2598 9.55268 32.3536 9.64645C32.4473 9.74021 32.5 9.86739 32.5 10V32Z" fill="#353535"/>
<path d="M23 20.5H13C12.6022 20.5 12.2206 20.658 11.9393 20.9393C11.658 21.2206 11.5 21.6022 11.5 22V29C11.5 29.3978 11.658 29.7794 11.9393 30.0607C12.2206 30.342 12.6022 30.5 13 30.5H23C23.3978 30.5 23.7794 30.342 24.0607 30.0607C24.342 29.7794 24.5 29.3978 24.5 29V22C24.5 21.6022 24.342 21.2206 24.0607 20.9393C23.7794 20.658 23.3978 20.5 23 20.5ZM23.5 29C23.5 29.1326 23.4473 29.2598 23.3536 29.3536C23.2598 29.4473 23.1326 29.5 23 29.5H13C12.8674 29.5 12.7402 29.4473 12.6464 29.3536C12.5527 29.2598 12.5 29.1326 12.5 29V22C12.5 21.8674 12.5527 21.7402 12.6464 21.6464C12.7402 21.5527 12.8674 21.5 13 21.5H23C23.1326 21.5 23.2598 21.5527 23.3536 21.6464C23.4473 21.7402 23.5 21.8674 23.5 22V29Z" fill="#353535"/>
<path d="M21 23.5H15C14.8674 23.5 14.7402 23.5527 14.6464 23.6464C14.5527 23.7402 14.5 23.8674 14.5 24C14.5 24.1326 14.5527 24.2598 14.6464 24.3536C14.7402 24.4473 14.8674 24.5 15 24.5H21C21.1326 24.5 21.2598 24.4473 21.3536 24.3536C21.4473 24.2598 21.5 24.1326 21.5 24C21.5 23.8674 21.4473 23.7402 21.3536 23.6464C21.2598 23.5527 21.1326 23.5 21 23.5Z" fill="#353535"/>
<path d="M18 26.5H15C14.8674 26.5 14.7402 26.5527 14.6464 26.6464C14.5527 26.7402 14.5 26.8674 14.5 27C14.5 27.1326 14.5527 27.2598 14.6464 27.3536C14.7402 27.4473 14.8674 27.5 15 27.5H18C18.1326 27.5 18.2598 27.4473 18.3536 27.3536C18.4473 27.2598 18.5 27.1326 18.5 27C18.5 26.8674 18.4473 26.7402 18.3536 26.6464C18.2598 26.5527 18.1326 26.5 18 26.5Z" fill="#353535"/>
</svg>
