<svg width="256" height="256" viewBox="0 0 256 256" fill="none" xmlns="http://www.w3.org/2000/svg">
<g clip-path="url(#clip0)">
<path d="M2.448 162.13C11.172 248.565 148.656 245.7 212.849 230.262C254.084 220.345 256.647 200.526 255.902 158.262C255.422 131.019 257.624 58.899 239.9 36.2C212.676 1.33349 188.286 23.201 154.572 34.5825C111.328 49.181 94.478 23.1165 53.3345 23.8925C-6.986 25.0315 -2.0545 117.519 2.448 162.13V162.13Z" fill="url(#paint0_linear)"/>
<path opacity="0.2" d="M208.169 39.3525C207.19 39.0275 206.15 38.854 205.07 38.8385C205.11 38.838 205.148 38.8325 205.189 38.8325H204.919H64.9085C59.1535 38.8325 54.4885 43.4975 54.4885 49.2475V203.207H39.2635C36.502 203.207 34.2635 205.446 34.2635 208.207V216.747C34.2635 222.502 38.9285 227.167 44.6785 227.167H184.354H184.959C184.857 227.167 184.758 227.155 184.656 227.152C190.265 226.99 194.769 222.4 194.769 216.752V73.0825H210.339C213.1 73.0825 215.339 70.844 215.339 68.0825V49.2475C215.339 44.6325 212.334 40.7125 208.169 39.3525V39.3525Z" fill="#DBEEF8"/>
<path d="M187.558 39.2475V63.0825H210.338C213.1 63.0825 215.338 60.844 215.338 58.0825V39.2475C215.338 34.6325 212.333 30.7125 208.168 29.3525C207.143 29.0125 206.053 28.8325 204.918 28.8325H177.143C182.893 28.8325 187.558 33.4975 187.558 39.2475Z" fill="#DBEEF8"/>
<path d="M205.189 28.8325C199.434 28.8325 194.769 33.4975 194.769 39.2475V206.752C194.769 212.502 190.104 217.167 184.354 217.167H54.4885V39.2475C54.4885 33.4975 59.1535 28.8325 64.9085 28.8325H205.189Z" fill="white"/>
<path d="M194.769 79V39.2475C194.769 33.4975 199.434 28.8325 205.189 28.8325H64.9085C59.1535 28.8325 54.4885 33.4975 54.4885 39.2475V79H194.769Z" fill="white"/>
<path d="M184.959 217.167H44.6785C38.9285 217.167 34.2635 212.502 34.2635 206.747V198.207C34.2635 195.446 36.502 193.207 39.2635 193.207H169.544C172.305 193.207 174.544 195.446 174.544 198.207V206.747C174.544 212.502 179.209 217.167 184.959 217.167Z" fill="white"/>
<path d="M208.955 26.9795C207.8 26.5965 206.592 26.3915 205.362 26.35C205.303 26.346 205.248 26.3325 205.188 26.3325H204.918H64.908C57.784 26.3325 51.988 32.126 51.988 39.2475V176.245C51.988 177.626 53.107 178.745 54.488 178.745C55.869 178.745 56.988 177.626 56.988 176.245V39.2475C56.988 34.883 60.5405 31.3325 64.908 31.3325H194.985C193.283 33.5205 192.268 36.2675 192.268 39.2475V206.752C192.268 211.014 188.879 214.491 184.656 214.652C180.432 214.49 177.043 211.013 177.043 206.75V198.209C177.043 194.073 173.678 190.709 169.543 190.709H151.5C150.119 190.709 149 191.828 149 193.209C149 194.59 150.119 195.709 151.5 195.709H169.544C170.922 195.709 172.044 196.83 172.044 198.209V206.75C172.044 209.731 173.058 212.479 174.761 214.667H44.681C40.316 214.667 36.764 211.115 36.764 206.75V198.209C36.764 196.83 37.8855 195.709 39.264 195.709H134.5C135.881 195.709 137 194.59 137 193.209C137 191.828 135.881 190.709 134.5 190.709H39.264C35.1285 190.709 31.764 194.073 31.764 198.209V206.75C31.764 213.873 37.5585 219.667 44.681 219.667H184.354H184.961C185.134 219.667 185.302 219.65 185.465 219.616C192.067 219.05 197.268 213.499 197.268 206.752V65.5825H210.339C214.475 65.5825 217.839 62.2185 217.839 58.0825V39.2475C217.839 33.6445 214.265 28.713 208.955 26.9795V26.9795ZM212.839 58.0825C212.839 59.461 211.718 60.5825 210.339 60.5825H197.268V39.2475C197.268 34.923 200.758 31.4025 205.07 31.3385C205.865 31.3535 206.643 31.4805 207.393 31.729C210.651 32.7925 212.838 35.814 212.838 39.2475V58.0825H212.839Z" fill="#02BAFF" fill-opacity="0.2"/>
<path d="M74.051 58.9365C76.2543 58.9365 78.0405 57.1503 78.0405 54.947C78.0405 52.7436 76.2543 50.9575 74.051 50.9575C71.8477 50.9575 70.0615 52.7436 70.0615 54.947C70.0615 57.1503 71.8477 58.9365 74.051 58.9365Z" fill="#00B6FF"/>
<path d="M125.695 179.833H80.5405C79.16 179.833 78.0405 178.714 78.0405 177.333V124C78.0405 122.62 79.16 121.5 80.5405 121.5H125.695V179.833Z" fill="#DBEEF8"/>
<path d="M125.695 121.5H149.522V179.833H125.695V121.5Z" fill="#DBEEF8"/>
<path d="M170.849 179.833H149.522V121.5H170.849C172.229 121.5 173.349 122.62 173.349 124V177.333C173.349 178.714 172.229 179.833 170.849 179.833Z" fill="#DBEEF8"/>
<path d="M164.525 167.75C164.525 169.456 163.141 170.839 161.435 170.839C159.729 170.839 158.346 169.456 158.346 167.75C158.346 166.043 159.729 164.66 161.435 164.66C163.141 164.66 164.525 166.043 164.525 167.75Z" fill="#00B6FF"/>
<path d="M137.608 160.339C139.314 160.339 140.697 158.956 140.697 157.25C140.697 155.544 139.314 154.16 137.608 154.16C135.902 154.16 134.518 155.544 134.518 157.25C134.518 158.956 135.902 160.339 137.608 160.339Z" fill="#00B6FF"/>
<path d="M137.608 149.839C139.314 149.839 140.697 148.456 140.697 146.75C140.697 145.044 139.314 143.66 137.608 143.66C135.902 143.66 134.518 145.044 134.518 146.75C134.518 148.456 135.902 149.839 137.608 149.839Z" fill="#00B6FF"/>
<path d="M164.525 136.25C164.525 137.956 163.141 139.339 161.435 139.339C159.729 139.339 158.346 137.956 158.346 136.25C158.346 134.543 159.729 133.16 161.435 133.16C163.141 133.16 164.525 134.543 164.525 136.25Z" fill="#00B6FF"/>
<path d="M110.998 170.25H85.2375C83.8565 170.25 82.7375 169.13 82.7375 167.75C82.7375 166.37 83.8565 165.25 85.2375 165.25H110.998C112.379 165.25 113.498 166.37 113.498 167.75C113.498 169.13 112.379 170.25 110.998 170.25Z" fill="#00B6FF"/>
<path d="M115.998 159.75H85.2375C83.8565 159.75 82.7375 158.63 82.7375 157.25C82.7375 155.87 83.8565 154.75 85.2375 154.75H115.998C117.379 154.75 118.498 155.87 118.498 157.25C118.498 158.63 117.379 159.75 115.998 159.75Z" fill="#00B6FF"/>
<path d="M110.998 149.25H85.2375C83.8565 149.25 82.7375 148.13 82.7375 146.75C82.7375 145.37 83.8565 144.25 85.2375 144.25H110.998C112.379 144.25 113.498 145.37 113.498 146.75C113.498 148.13 112.379 149.25 110.998 149.25Z" fill="#00B6FF"/>
<path d="M98.4975 138.75H85.2375C83.8565 138.75 82.7375 137.63 82.7375 136.25C82.7375 134.87 83.8565 133.75 85.2375 133.75H98.4975C99.8785 133.75 100.998 134.87 100.998 136.25C100.998 137.63 99.8785 138.75 98.4975 138.75Z" fill="#00B6FF"/>
<path d="M118.272 70.1465H71.3115C69.9305 70.1465 68.8115 69.027 68.8115 67.6465C68.8115 66.266 69.9305 65.1465 71.3115 65.1465H118.272C119.653 65.1465 120.772 66.266 120.772 67.6465C120.772 69.027 119.653 70.1465 118.272 70.1465Z" fill="#00B6FF"/>
<path d="M138.828 110.753H104.368C102.987 110.753 101.868 109.633 101.868 108.253C101.868 106.872 102.987 105.753 104.368 105.753H138.828C140.209 105.753 141.328 106.872 141.328 108.253C141.328 109.633 140.209 110.753 138.828 110.753Z" fill="#00B6FF"/>
<path d="M113.828 102.043H104.368C102.987 102.043 101.868 100.924 101.868 99.5435C101.868 98.163 102.987 97.0435 104.368 97.0435H113.828C115.209 97.0435 116.328 98.163 116.328 99.5435C116.328 100.924 115.209 102.043 113.828 102.043V102.043Z" fill="#00B6FF"/>
<path d="M94.9815 96.64C94.9815 92.0595 91.255 88.3335 86.675 88.3335C82.095 88.3335 78.3685 92.06 78.3685 96.64C78.3685 98.899 79.2775 100.947 80.746 102.446C79.278 103.945 78.3685 105.994 78.3685 108.253C78.3685 109.633 79.4875 110.753 80.8685 110.753C82.2495 110.753 83.3685 109.633 83.3685 108.253C83.3685 106.43 84.852 104.946 86.675 104.946C88.498 104.946 89.9815 106.43 89.9815 108.253C89.9815 109.633 91.1005 110.753 92.4815 110.753C93.8625 110.753 94.9815 109.633 94.9815 108.253C94.9815 105.994 94.0725 103.945 92.604 102.446C94.0725 100.947 94.9815 98.899 94.9815 96.64ZM86.675 93.3335C88.498 93.3335 89.9815 94.817 89.9815 96.64C89.9815 98.463 88.498 99.9465 86.675 99.9465C84.852 99.9465 83.3685 98.463 83.3685 96.64C83.368 94.8165 84.8515 93.3335 86.675 93.3335Z" fill="#00B6FF"/>
<path d="M215.339 91.59C214.7 91.59 214.06 91.346 213.572 90.8575C212.595 89.8815 212.595 88.2985 213.572 87.3225L218.572 82.3225C219.547 81.346 221.131 81.346 222.107 82.3225C223.083 83.2985 223.083 84.8815 222.107 85.8575L217.107 90.8575C216.619 91.3455 215.979 91.59 215.339 91.59V91.59Z" fill="#DBEEF8"/>
<path d="M215.339 200.707C214.7 200.707 214.06 200.463 213.572 199.975C212.595 198.999 212.595 197.416 213.572 196.44L218.572 191.44C219.547 190.463 221.131 190.463 222.107 191.44C223.083 192.416 223.083 193.999 222.107 194.975L217.107 199.975C216.619 200.463 215.979 200.707 215.339 200.707V200.707Z" fill="#DBEEF8"/>
<path d="M25.5375 97.545C24.1565 97.545 23.0375 96.426 23.0375 95.045C23.0375 93.3905 21.692 92.045 20.0375 92.045C18.6565 92.045 17.5375 90.926 17.5375 89.545C17.5375 88.164 18.6565 87.045 20.0375 87.045C21.692 87.045 23.0375 85.6995 23.0375 84.045C23.0375 82.664 24.1565 81.545 25.5375 81.545C26.9185 81.545 28.0375 82.664 28.0375 84.045C28.0375 85.6995 29.383 87.045 31.0375 87.045C32.4185 87.045 33.5375 88.164 33.5375 89.545C33.5375 90.926 32.4185 92.045 31.0375 92.045C29.383 92.045 28.0375 93.3905 28.0375 95.045C28.0375 96.426 26.9185 97.545 25.5375 97.545Z" fill="#DBEEF8"/>
<path d="M37.2635 123.154C35.8825 123.154 34.7635 122.035 34.7635 120.654C34.7635 118.999 33.418 117.654 31.7635 117.654C30.3825 117.654 29.2635 116.535 29.2635 115.154C29.2635 113.773 30.3825 112.654 31.7635 112.654C33.418 112.654 34.7635 111.308 34.7635 109.654C34.7635 108.273 35.8825 107.154 37.2635 107.154C38.6445 107.154 39.7635 108.273 39.7635 109.654C39.7635 111.308 41.109 112.654 42.7635 112.654C44.1445 112.654 45.2635 113.773 45.2635 115.154C45.2635 116.535 44.1445 117.654 42.7635 117.654C41.109 117.654 39.7635 118.999 39.7635 120.654C39.7635 122.034 38.6445 123.154 37.2635 123.154Z" fill="#DBEEF8"/>
<path d="M230.462 117.653C229.081 117.653 227.962 116.534 227.962 115.153C227.962 113.499 226.617 112.153 224.962 112.153C223.581 112.153 222.462 111.034 222.462 109.653C222.462 108.272 223.581 107.153 224.962 107.153C226.617 107.153 227.962 105.807 227.962 104.153C227.962 102.772 229.081 101.653 230.462 101.653C231.843 101.653 232.962 102.772 232.962 104.153C232.962 105.807 234.308 107.153 235.962 107.153C237.343 107.153 238.462 108.272 238.462 109.653C238.462 111.034 237.343 112.153 235.962 112.153C234.308 112.153 232.962 113.499 232.962 115.153C232.962 116.534 231.843 117.653 230.462 117.653Z" fill="#DBEEF8"/>
<path d="M125.695 179.084C124.314 179.084 123.195 177.965 123.195 176.584V124.75C123.195 123.369 124.314 122.25 125.695 122.25C127.076 122.25 128.195 123.369 128.195 124.75V176.584C128.195 177.965 127.075 179.084 125.695 179.084Z" fill="#00B6FF"/>
<path d="M149.521 179.084C148.14 179.084 147.021 177.965 147.021 176.584V124.75C147.021 123.369 148.14 122.25 149.521 122.25C150.902 122.25 152.021 123.369 152.021 124.75V176.584C152.021 177.965 150.902 179.084 149.521 179.084Z" fill="#00B6FF"/>
</g>
<defs>
<linearGradient id="paint0_linear" x1="13.79" y1="194.714" x2="252.266" y2="57.0305" gradientUnits="userSpaceOnUse">
<stop stop-color="#02BAFF" stop-opacity="0"/>
<stop offset="1" stop-color="#EDAB03" stop-opacity="0.2"/>
</linearGradient>
<clipPath id="clip0">
<rect width="256" height="256" fill="white"/>
</clipPath>
</defs>
</svg>
