<svg width="20" height="20" viewBox="0 0 20 20" fill="none" xmlns="http://www.w3.org/2000/svg">
<path fill-rule="evenodd" clip-rule="evenodd" d="M9.99984 8.33301C10.9203 8.33301 11.6665 9.0792 11.6665 9.99967C11.6665 10.9201 10.9203 11.6663 9.99984 11.6663C9.07936 11.6663 8.33317 10.9201 8.33317 9.99967C8.33317 9.0792 9.07936 8.33301 9.99984 8.33301Z" fill="#959595"/>
<path fill-rule="evenodd" clip-rule="evenodd" d="M15.8333 8.33301C16.7538 8.33301 17.5 9.0792 17.5 9.99967C17.5 10.9201 16.7538 11.6663 15.8333 11.6663C14.9129 11.6663 14.1667 10.9201 14.1667 9.99967C14.1667 9.0792 14.9129 8.33301 15.8333 8.33301Z" fill="#959595"/>
<path fill-rule="evenodd" clip-rule="evenodd" d="M4.16683 8.33301C5.0873 8.33301 5.8335 9.0792 5.8335 9.99967C5.8335 10.9201 5.0873 11.6663 4.16683 11.6663C3.24635 11.6663 2.50016 10.9201 2.50016 9.99967C2.50016 9.0792 3.24635 8.33301 4.16683 8.33301Z" fill="#959595"/>
</svg>
