<svg width="48" height="48" viewBox="0 0 48 48" fill="none" xmlns="http://www.w3.org/2000/svg">
<rect width="48" height="48" rx="24" fill="#F5F5F5"/>
<path d="M38.0525 13.724L36 14.75L33.45 13.4735C33.3109 13.4047 33.1577 13.3689 33.0025 13.3689C32.8473 13.3689 32.6941 13.4047 32.555 13.4735L30 14.75L27.45 13.4735C27.3109 13.4047 27.1577 13.3689 27.0025 13.3689C26.8473 13.3689 26.6941 13.4047 26.555 13.4735L24 14.75L21.947 13.7235C21.7945 13.6473 21.6251 13.6113 21.4548 13.6191C21.2845 13.6268 21.119 13.6779 20.974 13.7676C20.829 13.8572 20.7093 13.9825 20.6264 14.1314C20.5434 14.2804 20.4999 14.448 20.5 14.6185V38C20.4997 38.1709 20.5431 38.339 20.6262 38.4883C20.7093 38.6376 20.8293 38.7632 20.9748 38.8529C21.1202 38.9427 21.2862 38.9937 21.4569 39.001C21.6276 39.0084 21.7974 38.9719 21.95 38.895L24 37.8685L26.55 39.145C26.6891 39.2138 26.8423 39.2496 26.9975 39.2496C27.1527 39.2496 27.3059 39.2138 27.445 39.145L30 37.8685L32.55 39.145C32.6891 39.2141 32.8422 39.25 32.9975 39.25C33.1528 39.25 33.3059 39.2141 33.445 39.145L36 37.8685L38.05 38.895C38.2026 38.9719 38.3724 39.0084 38.5431 39.001C38.7138 38.9937 38.8798 38.9427 39.0252 38.8529C39.1707 38.7632 39.2907 38.6376 39.3738 38.4883C39.4569 38.339 39.5003 38.1709 39.5 38V14.6185C39.5 14.448 39.4565 14.2803 39.3735 14.1314C39.2904 13.9825 39.1707 13.8572 39.0257 13.7676C38.8806 13.678 38.7151 13.6269 38.5448 13.6193C38.3744 13.6117 38.205 13.6477 38.0525 13.724V13.724ZM31.5 31.3095H25C24.8674 31.3095 24.7402 31.2568 24.6464 31.1631C24.5527 31.0693 24.5 30.9421 24.5 30.8095C24.5 30.6769 24.5527 30.5497 24.6464 30.4559C24.7402 30.3622 24.8674 30.3095 25 30.3095H31.5C31.6326 30.3095 31.7598 30.3622 31.8536 30.4559C31.9473 30.5497 32 30.6769 32 30.8095C32 30.9421 31.9473 31.0693 31.8536 31.1631C31.7598 31.2568 31.6326 31.3095 31.5 31.3095ZM31.5 26.8095H24C23.8674 26.8095 23.7402 26.7568 23.6464 26.6631C23.5527 26.5693 23.5 26.4421 23.5 26.3095C23.5 26.1769 23.5527 26.0497 23.6464 25.9559C23.7402 25.8622 23.8674 25.8095 24 25.8095H31.5C31.6326 25.8095 31.7598 25.8622 31.8536 25.9559C31.9473 26.0497 32 26.1769 32 26.3095C32 26.4421 31.9473 26.5693 31.8536 26.6631C31.7598 26.7568 31.6326 26.8095 31.5 26.8095ZM31.5 22.3095H24C23.8674 22.3095 23.7402 22.2568 23.6464 22.1631C23.5527 22.0693 23.5 21.9421 23.5 21.8095C23.5 21.6769 23.5527 21.5497 23.6464 21.4559C23.7402 21.3622 23.8674 21.3095 24 21.3095H31.5C31.6326 21.3095 31.7598 21.3622 31.8536 21.4559C31.9473 21.5497 32 21.6769 32 21.8095C32 21.9421 31.9473 22.0693 31.8536 22.1631C31.7598 22.2568 31.6326 22.3095 31.5 22.3095ZM36 31.3095H34.5C34.3674 31.3095 34.2402 31.2568 34.1464 31.1631C34.0527 31.0693 34 30.9421 34 30.8095C34 30.6769 34.0527 30.5497 34.1464 30.4559C34.2402 30.3622 34.3674 30.3095 34.5 30.3095H36C36.1326 30.3095 36.2598 30.3622 36.3536 30.4559C36.4473 30.5497 36.5 30.6769 36.5 30.8095C36.5 30.9421 36.4473 31.0693 36.3536 31.1631C36.2598 31.2568 36.1326 31.3095 36 31.3095ZM36 26.8095H34.5C34.3674 26.8095 34.2402 26.7568 34.1464 26.6631C34.0527 26.5693 34 26.4421 34 26.3095C34 26.1769 34.0527 26.0497 34.1464 25.9559C34.2402 25.8622 34.3674 25.8095 34.5 25.8095H36C36.1326 25.8095 36.2598 25.8622 36.3536 25.9559C36.4473 26.0497 36.5 26.1769 36.5 26.3095C36.5 26.4421 36.4473 26.5693 36.3536 26.6631C36.2598 26.7568 36.1326 26.8095 36 26.8095ZM36 22.3095H34.5C34.3674 22.3095 34.2402 22.2568 34.1464 22.1631C34.0527 22.0693 34 21.9421 34 21.8095C34 21.6769 34.0527 21.5497 34.1464 21.4559C34.2402 21.3622 34.3674 21.3095 34.5 21.3095H36C36.1326 21.3095 36.2598 21.3622 36.3536 21.4559C36.4473 21.5497 36.5 21.6769 36.5 21.8095C36.5 21.9421 36.4473 22.0693 36.3536 22.1631C36.2598 22.2568 36.1326 22.3095 36 22.3095Z" fill="#02BAFF" fill-opacity="0.2"/>
<path d="M33.026 9.15C32.881 9.06025 32.7154 9.00909 32.545 9.00139C32.3746 8.99369 32.205 9.0297 32.0525 9.106L30.224 10.021C30.1541 10.0558 30.0771 10.074 29.999 10.074C29.9209 10.074 29.8439 10.0558 29.774 10.021L27.45 8.8545C27.3109 8.78569 27.1577 8.74989 27.0025 8.74989C26.8473 8.74989 26.6941 8.78569 26.555 8.8545L24.2265 10.0195C24.157 10.054 24.0804 10.072 24.0028 10.072C23.9251 10.072 23.8485 10.054 23.779 10.0195L21.4495 8.8545C21.3104 8.7857 21.1574 8.7499 21.0022 8.7499C20.8471 8.7499 20.6941 8.7857 20.555 8.8545L18.2265 10.0195C18.157 10.054 18.0804 10.072 18.0028 10.072C17.9251 10.072 17.8485 10.054 17.779 10.0195L15.9495 9.1045C15.7969 9.0277 15.6271 8.99128 15.4564 8.99873C15.2857 9.00618 15.1198 9.05724 14.9744 9.14704C14.8291 9.23684 14.7091 9.36239 14.6261 9.51171C14.543 9.66103 14.4996 9.82914 14.5 10V26.69H10C9.60218 26.69 9.22064 26.848 8.93934 27.1293C8.65804 27.4107 8.5 27.7922 8.5 28.19V28.69C8.50146 30.0156 9.02871 31.2866 9.96607 32.2239C10.9034 33.1613 12.1744 33.6886 13.5 33.69H28.5C29.8256 33.6886 31.0966 33.1613 32.0339 32.2239C32.9713 31.2866 33.4985 30.0156 33.5 28.69V10C33.5005 9.82957 33.4572 9.66187 33.3741 9.51302C33.2911 9.36417 33.1713 9.23916 33.026 9.15V9.15ZM13.5 32.69C12.4395 32.6888 11.4228 32.267 10.6729 31.5171C9.923 30.7672 9.50119 29.7505 9.5 28.69V28.19C9.5 28.0574 9.55268 27.9302 9.64645 27.8365C9.74021 27.7427 9.86739 27.69 10 27.69H23C23.1326 27.69 23.2598 27.7427 23.3536 27.8365C23.4473 27.9302 23.5 28.0574 23.5 28.19V28.69C23.5 29.4666 23.681 30.2324 24.0287 30.9268C24.3764 31.6211 24.8812 32.2249 25.503 32.69H13.5ZM32.5 28.69C32.5 29.7509 32.0786 30.7683 31.3284 31.5184C30.5783 32.2686 29.5609 32.69 28.5 32.69C27.4391 32.69 26.4217 32.2686 25.6716 31.5184C24.9214 30.7683 24.5 29.7509 24.5 28.69V28.19C24.5 27.7922 24.342 27.4107 24.0607 27.1293C23.7794 26.848 23.3978 26.69 23 26.69H15.5V10L17.3295 10.9145C17.5379 11.0183 17.7675 11.0724 18.0002 11.0724C18.233 11.0724 18.4626 11.0183 18.671 10.9145L21 9.75L23.3295 10.9145C23.5379 11.0183 23.7675 11.0724 24.0002 11.0724C24.233 11.0724 24.4626 11.0183 24.671 10.9145L27 9.75L29.3295 10.9145C29.5379 11.0181 29.7675 11.072 30.0002 11.072C30.233 11.072 30.4626 11.0181 30.671 10.9145L32.5 10V28.69Z" fill="#353535"/>
<path d="M28.5 19.19H27C26.8674 19.19 26.7402 19.2427 26.6464 19.3364C26.5527 19.4302 26.5 19.5574 26.5 19.69C26.5 19.8226 26.5527 19.9498 26.6464 20.0436C26.7402 20.1373 26.8674 20.19 27 20.19H28.5C28.6326 20.19 28.7598 20.1373 28.8536 20.0436C28.9473 19.9498 29 19.8226 29 19.69C29 19.5574 28.9473 19.4302 28.8536 19.3364C28.7598 19.2427 28.6326 19.19 28.5 19.19Z" fill="#353535"/>
<path d="M25 19.19H19.5C19.3674 19.19 19.2402 19.2427 19.1464 19.3364C19.0527 19.4302 19 19.5574 19 19.69C19 19.8226 19.0527 19.9498 19.1464 20.0436C19.2402 20.1373 19.3674 20.19 19.5 20.19H25C25.1326 20.19 25.2598 20.1373 25.3536 20.0436C25.4473 19.9498 25.5 19.8226 25.5 19.69C25.5 19.5574 25.4473 19.4302 25.3536 19.3364C25.2598 19.2427 25.1326 19.19 25 19.19Z" fill="#353535"/>
<path d="M28.5 22.3095H27C26.8674 22.3095 26.7402 22.3622 26.6464 22.4559C26.5527 22.5497 26.5 22.6769 26.5 22.8095C26.5 22.9421 26.5527 23.0693 26.6464 23.1631C26.7402 23.2568 26.8674 23.3095 27 23.3095H28.5C28.6326 23.3095 28.7598 23.2568 28.8536 23.1631C28.9473 23.0693 29 22.9421 29 22.8095C29 22.6769 28.9473 22.5497 28.8536 22.4559C28.7598 22.3622 28.6326 22.3095 28.5 22.3095Z" fill="#353535"/>
<path d="M25 22.3095H19.5C19.3674 22.3095 19.2402 22.3622 19.1464 22.4559C19.0527 22.5497 19 22.6769 19 22.8095C19 22.9421 19.0527 23.0693 19.1464 23.1631C19.2402 23.2568 19.3674 23.3095 19.5 23.3095H25C25.1326 23.3095 25.2598 23.2568 25.3536 23.1631C25.4473 23.0693 25.5 22.9421 25.5 22.8095C25.5 22.6769 25.4473 22.5497 25.3536 22.4559C25.2598 22.3622 25.1326 22.3095 25 22.3095Z" fill="#353535"/>
<path d="M28.5 17.071H27C26.8674 17.071 26.7402 17.0183 26.6464 16.9246C26.5527 16.8308 26.5 16.7036 26.5 16.571C26.5 16.4384 26.5527 16.3112 26.6464 16.2175C26.7402 16.1237 26.8674 16.071 27 16.071H28.5C28.6326 16.071 28.7598 16.1237 28.8536 16.2175C28.9473 16.3112 29 16.4384 29 16.571C29 16.7036 28.9473 16.8308 28.8536 16.9246C28.7598 17.0183 28.6326 17.071 28.5 17.071Z" fill="#353535"/>
<path d="M25 17.071H19.5C19.3674 17.071 19.2402 17.0183 19.1464 16.9246C19.0527 16.8308 19 16.7036 19 16.571C19 16.4384 19.0527 16.3112 19.1464 16.2175C19.2402 16.1237 19.3674 16.071 19.5 16.071H25C25.1326 16.071 25.2598 16.1237 25.3536 16.2175C25.4473 16.3112 25.5 16.4384 25.5 16.571C25.5 16.7036 25.4473 16.8308 25.3536 16.9246C25.2598 17.0183 25.1326 17.071 25 17.071Z" fill="#353535"/>
</svg>
