<svg width="20" height="20" viewBox="0 0 20 20" fill="none" xmlns="http://www.w3.org/2000/svg">
<path fill-rule="evenodd" clip-rule="evenodd" d="M10.0001 2.375C8.99874 2.375 8.00722 2.57223 7.08211 2.95542C6.157 3.33861 5.31643 3.90026 4.60838 4.60831L3.23694 5.97975V4.04031C3.23694 3.6261 2.90115 3.29031 2.48694 3.29031C2.07272 3.29031 1.73694 3.6261 1.73694 4.04031V7.79031C1.73694 8.20453 2.07272 8.54031 2.48694 8.54031H6.23694C6.65115 8.54031 6.98694 8.20453 6.98694 7.79031C6.98694 7.3761 6.65115 7.04031 6.23694 7.04031H4.2977L5.66904 5.66897C6.2378 5.10021 6.91301 4.64905 7.65613 4.34124C8.39925 4.03343 9.19572 3.875 10.0001 3.875C10.8044 3.875 11.6009 4.03343 12.344 4.34124C13.0871 4.64905 13.7623 5.10021 14.3311 5.66897C14.624 5.96186 15.0989 5.96186 15.3918 5.66897C15.6847 5.37608 15.6847 4.9012 15.3918 4.60831C14.6837 3.90026 13.8431 3.33861 12.918 2.95542C11.9929 2.57223 11.0014 2.375 10.0001 2.375Z" fill="#00B6FF"/>
<path fill-rule="evenodd" clip-rule="evenodd" d="M13.7631 11.4597C13.3488 11.4597 13.0131 11.7955 13.0131 12.2097C13.0131 12.6239 13.3488 12.9597 13.7631 12.9597H15.7024L14.3311 14.331C13.7623 14.8998 13.0871 15.351 12.344 15.6588C11.6008 15.9666 10.8044 16.125 10 16.125C9.19568 16.125 8.39921 15.9666 7.6561 15.6588C6.91298 15.351 6.23776 14.8998 5.669 14.331C5.37611 14.0381 4.90123 14.0381 4.60834 14.331C4.31545 14.6239 4.31545 15.0988 4.60834 15.3917C5.31639 16.0997 6.15696 16.6614 7.08207 17.0446C8.00718 17.4278 8.9987 17.625 10 17.625C11.0014 17.625 11.9929 17.4278 12.918 17.0446C13.8431 16.6614 14.6837 16.0997 15.3917 15.3917L16.7631 14.0203V15.9597C16.7631 16.3739 17.0988 16.7097 17.5131 16.7097C17.9273 16.7097 18.2631 16.3739 18.2631 15.9597V12.2097C18.2631 12.0277 18.1982 11.8608 18.0904 11.7309C18.0212 11.6476 17.9344 11.5795 17.8356 11.5324C17.7379 11.4858 17.6285 11.4597 17.5131 11.4597H13.7631Z" fill="#00B6FF"/>
</svg>
