<svg width="48" height="48" viewBox="0 0 48 48" fill="none" xmlns="http://www.w3.org/2000/svg">
<rect width="48" height="48" rx="24" fill="#F5F5F5"/>
<path d="M39.5 37.75C39.5 37.6174 39.4473 37.4902 39.3536 37.3964C39.2598 37.3027 39.1326 37.25 39 37.25H36.5V14.75C36.5 14.3522 36.342 13.9706 36.0607 13.6893C35.7794 13.408 35.3978 13.25 35 13.25H22C21.6022 13.25 21.2206 13.408 20.9393 13.6893C20.658 13.9706 20.5 14.3522 20.5 14.75V37.25H18C17.8674 37.25 17.7402 37.3027 17.6464 37.3964C17.5527 37.4902 17.5 37.6174 17.5 37.75C17.5 37.8826 17.5527 38.0098 17.6464 38.1036C17.7402 38.1973 17.8674 38.25 18 38.25H39C39.1326 38.25 39.2598 38.1973 39.3536 38.1036C39.4473 38.0098 39.5 37.8826 39.5 37.75ZM33.5 27.25C33.5 27.3826 33.4473 27.5098 33.3536 27.6036C33.2598 27.6973 33.1326 27.75 33 27.75H30C29.8674 27.75 29.7402 27.6973 29.6464 27.6036C29.5527 27.5098 29.5 27.3826 29.5 27.25C29.5 27.1174 29.5527 26.9902 29.6464 26.8964C29.7402 26.8027 29.8674 26.75 30 26.75H33C33.1326 26.75 33.2598 26.8027 33.3536 26.8964C33.4473 26.9902 33.5 27.1174 33.5 27.25ZM23.5 18.25C23.5 17.8522 23.658 17.4706 23.9393 17.1893C24.2206 16.908 24.6022 16.75 25 16.75H32C32.3978 16.75 32.7794 16.908 33.0607 17.1893C33.342 17.4706 33.5 17.8522 33.5 18.25V23.75C33.5 24.1478 33.342 24.5294 33.0607 24.8107C32.7794 25.092 32.3978 25.25 32 25.25H25C24.6022 25.25 24.2206 25.092 23.9393 24.8107C23.658 24.5294 23.5 24.1478 23.5 23.75V18.25ZM32 37.25V31.75H30.5V33.25C30.5 33.5152 30.3946 33.7696 30.2071 33.9571C30.0196 34.1446 29.7652 34.25 29.5 34.25H27.5C27.2348 34.25 26.9804 34.1446 26.7929 33.9571C26.6054 33.7696 26.5 33.5152 26.5 33.25V31.75H25V37.25H24V31.75C24 31.4848 24.1054 31.2304 24.2929 31.0429C24.4804 30.8554 24.7348 30.75 25 30.75H32C32.2652 30.75 32.5196 30.8554 32.7071 31.0429C32.8946 31.2304 33 31.4848 33 31.75V37.25H32Z" fill="#FFDCDE"/>
<path d="M32 17.75H25C24.7239 17.75 24.5 17.9739 24.5 18.25V23.75C24.5 24.0261 24.7239 24.25 25 24.25H32C32.2761 24.25 32.5 24.0261 32.5 23.75V18.25C32.5 17.9739 32.2761 17.75 32 17.75Z" fill="#FFDCDE"/>
<path d="M27.5 31.75H29.5V33.25H27.5V31.75Z" fill="#FFDCDE"/>
<path d="M31 15.75H22C21.6022 15.75 21.2206 15.908 20.9393 16.1893C20.658 16.4706 20.5 16.8522 20.5 17.25V21.794C20.2313 21.3647 19.9136 20.9681 19.5535 20.612C18.9135 19.9831 18.1487 19.4954 17.3085 19.1805C17.9274 18.8598 18.4721 18.4129 18.9076 17.8687C19.343 17.3244 19.6595 16.6949 19.8366 16.0207C20.0136 15.3466 20.0474 14.6428 19.9356 13.9548C19.8238 13.2668 19.5689 12.6099 19.1875 12.0265L22.6755 10.7185C22.737 10.6955 22.7934 10.6606 22.8415 10.6159C22.8895 10.5711 22.9283 10.5173 22.9555 10.4575C22.9828 10.3978 22.998 10.3332 23.0003 10.2676C23.0026 10.202 22.992 10.1365 22.969 10.075C22.946 10.0135 22.9111 9.95708 22.8664 9.90903C22.8216 9.86098 22.7678 9.82223 22.708 9.79497C22.6483 9.76772 22.5837 9.7525 22.5181 9.75019C22.4525 9.74788 22.387 9.75851 22.3255 9.7815L18.5255 11.207C18.0146 10.6983 17.3998 10.3062 16.7231 10.0575C16.0464 9.80885 15.3239 9.70956 14.6052 9.76646C13.8865 9.82335 13.1886 10.0351 12.5595 10.3871C11.9304 10.7392 11.3848 11.2232 10.9604 11.8059C10.536 12.3886 10.2426 13.0563 10.1006 13.7631C9.95848 14.4699 9.97103 15.1991 10.1373 15.9006C10.3036 16.6021 10.6198 17.2593 11.064 17.8271C11.5083 18.3949 12.0701 18.8598 12.711 19.19C11.464 19.6933 10.3963 20.5586 9.64574 21.6744C8.89517 22.7902 8.4961 24.1053 8.5 25.45V30.25C8.5 30.6478 8.65803 31.0293 8.93934 31.3107C9.22064 31.592 9.60217 31.75 10 31.75H22.5C23.3408 31.7484 24.1529 31.4444 24.7881 30.8937C25.4233 30.3429 25.8393 29.582 25.96 28.75H31C31.3978 28.75 31.7794 28.592 32.0607 28.3107C32.342 28.0293 32.5 27.6478 32.5 27.25V17.25C32.5 16.8522 32.342 16.4706 32.0607 16.1893C31.7794 15.908 31.3978 15.75 31 15.75V15.75ZM25 16.75H27.5V18.25C27.5 18.3826 27.4473 18.5098 27.3536 18.6035C27.2598 18.6973 27.1326 18.75 27 18.75H25.5C25.3674 18.75 25.2402 18.6973 25.1464 18.6035C25.0527 18.5098 25 18.3826 25 18.25V16.75ZM15 10.75C15.8937 10.7502 16.7614 11.0514 17.463 11.605L11.073 14C11.2482 13.0865 11.7359 12.2624 12.4525 11.6694C13.1691 11.0763 14.0698 10.7512 15 10.75V10.75ZM11.017 15.09L18.2215 12.39C18.5867 12.8877 18.8316 13.4632 18.9371 14.0714C19.0426 14.6796 19.0057 15.304 18.8295 15.8956C18.6532 16.4872 18.3423 17.0299 17.9211 17.4811C17.4999 17.9324 16.9799 18.28 16.4019 18.4966C15.8238 18.7133 15.2035 18.793 14.5895 18.7297C13.9754 18.6664 13.3844 18.4617 12.8627 18.1317C12.3411 17.8017 11.9029 17.3553 11.5827 16.8276C11.2625 16.2998 11.0688 15.7051 11.017 15.09V15.09ZM15 19.75C15.7223 19.75 16.4375 19.8923 17.1048 20.1687C17.7721 20.4451 18.3784 20.8502 18.8891 21.3609C19.3998 21.8716 19.8049 22.4779 20.0813 23.1452C20.3577 23.8125 20.5 24.5277 20.5 25.25V30.75H18.46C18.3393 29.918 17.9233 29.1571 17.2881 28.6063C16.6529 28.0555 15.8407 27.7516 15 27.75H13V25.25C13 25.1174 12.9473 24.9902 12.8536 24.8964C12.7598 24.8027 12.6326 24.75 12.5 24.75C12.3674 24.75 12.2402 24.8027 12.1464 24.8964C12.0527 24.9902 12 25.1174 12 25.25V26.75H9.5V25.45C9.47999 23.9667 10.0467 22.5355 11.0768 21.4679C12.1068 20.4004 13.5169 19.783 15 19.75V19.75ZM9.5 30.25V27.75H12C12 28.0152 12.1054 28.2696 12.2929 28.4571C12.4804 28.6446 12.7348 28.75 13 28.75H15C15.5761 28.7507 16.1343 28.95 16.5806 29.3144C17.0269 29.6787 17.334 30.1857 17.45 30.75H10C9.86739 30.75 9.74021 30.6973 9.64644 30.6035C9.55268 30.5098 9.5 30.3826 9.5 30.25V30.25ZM22.5 30.75H21.5V28.658C21.6601 28.7172 21.8293 28.7483 22 28.75H24.95C24.834 29.3143 24.5269 29.8213 24.0806 30.1856C23.6343 30.5499 23.0761 30.7493 22.5 30.75V30.75ZM31.5 27.25C31.5 27.3826 31.4473 27.5098 31.3536 27.6035C31.2598 27.6973 31.1326 27.75 31 27.75H22C21.8674 27.75 21.7402 27.6973 21.6464 27.6035C21.5527 27.5098 21.5 27.3826 21.5 27.25V17.25C21.5 17.1174 21.5527 16.9902 21.6464 16.8964C21.7402 16.8027 21.8674 16.75 22 16.75H24V18.25C24 18.6478 24.158 19.0294 24.4393 19.3107C24.7206 19.592 25.1022 19.75 25.5 19.75H27C27.3978 19.75 27.7794 19.592 28.0607 19.3107C28.342 19.0294 28.5 18.6478 28.5 18.25V16.75H31C31.1326 16.75 31.2598 16.8027 31.3536 16.8964C31.4473 16.9902 31.5 17.1174 31.5 17.25V27.25Z" fill="#353535"/>
<path d="M30 23.25H27.5C27.3674 23.25 27.2402 23.3027 27.1464 23.3964C27.0527 23.4902 27 23.6174 27 23.75C27 23.8826 27.0527 24.0098 27.1464 24.1036C27.2402 24.1973 27.3674 24.25 27.5 24.25H30C30.1326 24.25 30.2598 24.1973 30.3536 24.1036C30.4473 24.0098 30.5 23.8826 30.5 23.75C30.5 23.6174 30.4473 23.4902 30.3536 23.3964C30.2598 23.3027 30.1326 23.25 30 23.25Z" fill="#353535"/>
<path d="M30 25.25H28C27.8674 25.25 27.7402 25.3027 27.6464 25.3964C27.5527 25.4902 27.5 25.6174 27.5 25.75C27.5 25.8826 27.5527 26.0098 27.6464 26.1036C27.7402 26.1973 27.8674 26.25 28 26.25H30C30.1326 26.25 30.2598 26.1973 30.3536 26.1036C30.4473 26.0098 30.5 25.8826 30.5 25.75C30.5 25.6174 30.4473 25.4902 30.3536 25.3964C30.2598 25.3027 30.1326 25.25 30 25.25Z" fill="#353535"/>
</svg>
