<svg width="64" height="64" viewBox="0 0 64 64" fill="none" xmlns="http://www.w3.org/2000/svg">
<circle cx="32" cy="32" r="32" fill="#02BAFF"/>
<path d="M37.1027 25.25C37.1683 25.3638 37.2557 25.4635 37.3599 25.5435C37.4641 25.6235 37.583 25.6821 37.7099 25.7161C37.8367 25.7501 37.9691 25.7588 38.0993 25.7416C38.2295 25.7244 38.355 25.6818 38.4688 25.616L39.0523 25.2791C39.3318 25.5187 39.653 25.7047 39.9998 25.828V26.5C39.9998 26.7652 40.1052 27.0196 40.2927 27.2071C40.4803 27.3946 40.7346 27.5 40.9998 27.5C41.265 27.5 41.5194 27.3946 41.7069 27.2071C41.8945 27.0196 41.9998 26.7652 41.9998 26.5V25.828C42.3467 25.7047 42.6679 25.5187 42.9474 25.2791L43.5309 25.616C43.7606 25.7486 44.0335 25.7846 44.2897 25.7159C44.5459 25.6473 44.7643 25.4797 44.8969 25.25C45.0295 25.0203 45.0655 24.7474 44.9968 24.4912C44.9282 24.235 44.7606 24.0166 44.5309 23.884L43.9488 23.5479C44.0168 23.1858 44.0168 22.8142 43.9488 22.4521L44.5309 22.116C44.6446 22.0504 44.7443 21.9629 44.8242 21.8588C44.9042 21.7546 44.9628 21.6357 44.9968 21.5088C45.0308 21.382 45.0395 21.2497 45.0223 21.1195C45.0052 20.9893 44.9626 20.8637 44.8969 20.75C44.8313 20.6363 44.7438 20.5366 44.6397 20.4566C44.5355 20.3767 44.4166 20.3181 44.2897 20.2841C44.1629 20.2501 44.0306 20.2414 43.9004 20.2586C43.7702 20.2757 43.6446 20.3183 43.5309 20.384L42.9474 20.7209C42.6679 20.4813 42.3467 20.2953 41.9998 20.172V19.5C41.9998 19.2348 41.8945 18.9804 41.7069 18.7929C41.5194 18.6054 41.265 18.5 40.9998 18.5C40.7346 18.5 40.4803 18.6054 40.2927 18.7929C40.1052 18.9804 39.9998 19.2348 39.9998 19.5V20.172C39.653 20.2953 39.3318 20.4813 39.0523 20.7209L38.4688 20.384C38.2391 20.2514 37.9661 20.2154 37.7099 20.2841C37.4538 20.3527 37.2353 20.5203 37.1027 20.75C36.9701 20.9797 36.9342 21.2526 37.0028 21.5088C37.0715 21.765 37.2391 21.9834 37.4688 22.116L38.0508 22.4521C37.9828 22.8142 37.9828 23.1858 38.0508 23.5479L37.4688 23.884C37.2391 24.0166 37.0715 24.235 37.0028 24.4912C36.9342 24.7474 36.9701 25.0203 37.1027 25.25ZM40.9998 22C41.1976 22 41.3909 22.0586 41.5554 22.1685C41.7198 22.2784 41.848 22.4346 41.9237 22.6173C41.9994 22.8 42.0192 23.0011 41.9806 23.1951C41.942 23.3891 41.8468 23.5673 41.7069 23.7071C41.5671 23.847 41.3889 23.9422 41.1949 23.9808C41.0009 24.0194 40.7999 23.9996 40.6171 23.9239C40.4344 23.8482 40.2782 23.72 40.1684 23.5556C40.0585 23.3911 39.9998 23.1978 39.9998 23C40.0001 22.7349 40.1056 22.4807 40.293 22.2932C40.4805 22.1058 40.7347 22.0003 40.9998 22Z" fill="#F0FBFF"/>
<path d="M44.9919 42.4979C43.126 39.2841 40.1378 36.8737 36.6019 35.7301C37.7228 35.0617 38.6853 34.1581 39.4231 33.0816C40.1609 32.0052 40.6564 30.7815 40.8754 29.495C40.3203 29.4716 39.7825 29.2948 39.3218 28.9841C38.8612 28.6734 38.4958 28.241 38.2662 27.735C38.1678 27.7448 38.069 27.7498 37.9697 27.7498C37.418 27.7492 36.8772 27.5967 36.4065 27.3089C35.9358 27.0212 35.5535 26.6093 35.3015 26.1186C35.0494 25.6279 34.9374 25.0772 34.9778 24.527C35.0181 23.9768 35.2092 23.4483 35.5301 22.9996C35.1946 22.5302 35.0012 21.9742 34.973 21.3979C34.9447 20.8217 35.0828 20.2494 35.3708 19.7495C35.3854 19.7241 35.4017 19.7001 35.417 19.6753C33.3154 18.8117 30.9649 18.7751 28.8375 19.573C26.7101 20.3709 24.9634 21.9442 23.9481 23.9768C22.9328 26.0095 22.7241 28.351 23.364 30.5312C24.0039 32.7113 25.445 34.5686 27.3978 35.7301C23.8621 36.8737 20.8739 39.284 19.008 42.4977C18.92 42.6497 18.8737 42.8221 18.8735 42.9978C18.8734 43.1734 18.9195 43.3459 19.0073 43.4981C19.095 43.6502 19.2213 43.7765 19.3733 43.8644C19.5254 43.9522 19.6979 43.9985 19.8735 43.9985L44.1264 43.9987C44.302 43.9987 44.4745 43.9525 44.6266 43.8646C44.7787 43.7768 44.9049 43.6505 44.9927 43.4983C45.0804 43.3462 45.1265 43.1736 45.1264 42.998C45.1263 42.8224 45.0799 42.6499 44.9919 42.4979L44.9919 42.4979Z" fill="#F0FBFF"/>
</svg>
