<svg width="32" height="32" viewBox="0 0 32 32" fill="none" xmlns="http://www.w3.org/2000/svg">
<path d="M23.1237 4.63351L17.8784 9.87875L18.5856 13.4143L22.1211 14.1214L27.3663 8.87615L27.3668 8.87594C28.0161 10.4085 28.1713 12.1053 27.811 13.7302C27.4507 15.3551 26.5928 16.8273 25.3566 17.9418C24.1205 19.0563 22.5676 19.7576 20.9142 19.9482C19.2607 20.1388 17.589 19.8091 16.1317 19.0051L16.1318 19.0049L9.12109 27.1214C8.55837 27.6835 7.79548 27.9991 7.00012 27.9989C6.20477 27.9986 5.44206 27.6826 4.87966 27.1202C4.31726 26.5578 4.0012 25.7951 4.00098 24.9997C4.00075 24.2044 4.31637 23.4415 4.87845 22.8787L12.9949 15.8681L12.9947 15.8682C12.1907 14.4108 11.861 12.7391 12.0516 11.0857C12.2422 9.43225 12.9436 7.87937 14.0581 6.64321C15.1725 5.40704 16.6447 4.5491 18.2696 4.1888C19.8945 3.8285 21.5914 3.98377 23.1239 4.633L23.1237 4.63351Z" stroke="#00B6FF" stroke-width="1.5" stroke-linecap="round" stroke-linejoin="round"/>
</svg>
