<svg width="2460" height="2928" viewBox="0 0 2460 2928" fill="none" xmlns="http://www.w3.org/2000/svg">
<g opacity="0.1" clip-path="url(#clip0)">
<path d="M236.717 984.03C327.582 1063.76 437.783 1118.25 556.308 1142.05L1262.2 1286.65L1588.5 597.962L1708.81 344.742L1722.01 317.336L174.401 0C-93.7636 304.859 -36.0629 743.576 236.717 984.03Z" fill="#C2C2C2"/>
<path d="M1262.2 1286.65L1591.89 1354.16L2279.47 1495.01L2313.37 1502.22L2391.91 1336.34C2526.36 1051.82 2450.41 744.368 2256.17 548.414C2255.89 548.119 2255.62 547.806 2255.38 547.476C2251.56 543.437 2247.81 539.687 2243.77 535.864C2239.73 532.042 2235.69 528.075 2231.65 524.325C2227.61 520.575 2224.44 517.545 2220.9 514.372L2207.92 503.193C2200.06 496.702 2191.98 490.283 2183.97 483.937C2178.49 479.754 2172.94 475.571 2167.31 471.532C2086.9 413.154 1994.88 372.742 1897.49 353.036L1721.72 316.975L1708.52 344.742L1588.79 597.961L1262.2 1286.65Z" fill="#616161"/>
<path d="M1638.85 2925.84L2313.66 1501.86L2279.76 1494.65L1592.18 1353.8L1262.2 1286.65L955.236 1934.31C726.958 2417.45 1105.91 2967.16 1638.85 2925.84Z" fill="#878787"/>
</g>
<defs>
<clipPath id="clip0">
<rect width="2460" height="2928" fill="white"/>
</clipPath>
</defs>
</svg>
