<svg width="1170" height="96" viewBox="0 0 1170 96" fill="none" xmlns="http://www.w3.org/2000/svg">
<g clip-path="url(#clip0)">
<rect width="1170" height="96" fill="#FFCC00"/>
<g style="mix-blend-mode:soft-light" opacity="0.4">
<path fill-rule="evenodd" clip-rule="evenodd" d="M940.237 76.8254C941.352 72.5502 945.722 69.9885 949.997 71.1037L998.212 83.6812C1002.49 84.7965 1005.05 89.1663 1003.93 93.4415C1002.82 97.7167 998.449 100.278 994.173 99.1631L945.958 86.5856C941.683 85.4704 939.121 81.1006 940.237 76.8254Z" fill="black"/>
<path fill-rule="evenodd" clip-rule="evenodd" d="M984.808 51.092C985.924 46.8168 990.293 44.2551 994.569 45.3703L1042.78 57.9478C1047.06 59.0631 1049.62 63.4329 1048.51 67.7081C1047.39 71.9833 1043.02 74.545 1038.74 73.4297L990.53 60.8522C986.255 59.737 983.693 55.3672 984.808 51.092Z" fill="black"/>
<path fill-rule="evenodd" clip-rule="evenodd" d="M1029.38 25.3586C1030.5 21.0834 1034.86 18.5217 1039.14 19.6369L1087.36 32.2144C1091.63 33.3297 1094.19 37.6995 1093.08 41.9747C1091.96 46.2499 1087.59 48.8116 1083.32 47.6963L1035.1 35.1189C1030.83 34.0036 1028.26 29.6338 1029.38 25.3586Z" fill="black"/>
<path fill-rule="evenodd" clip-rule="evenodd" d="M1073.95 -0.374829C1075.07 -4.65004 1079.44 -7.2117 1083.71 -6.09646L1131.93 6.48104C1136.2 7.59628 1138.76 11.9661 1137.65 16.2413C1136.53 20.5165 1132.16 23.0782 1127.89 21.9629L1079.67 9.38545C1075.4 8.2702 1072.84 3.90038 1073.95 -0.374829Z" fill="black"/>
<rect x="332.928" y="15.9281" width="84" height="84" rx="16" transform="rotate(30 332.928 15.9281)" stroke="black" stroke-width="16"/>
<path d="M42.6569 20.1347L95.1348 -32.3432C105.049 -42.2571 122 -35.2357 122 -21.2153V31.2626C122 39.9541 114.954 46.9999 106.263 46.9999H53.7848C39.7644 46.9999 32.743 30.0486 42.6569 20.1347Z" stroke="black" stroke-width="16"/>
<path fill-rule="evenodd" clip-rule="evenodd" d="M584.858 5.44645C581.694 9.37128 577.827 12.9779 572.799 15.05C567.693 17.1538 562.35 17.3603 557.278 16.8261C552.254 16.297 547.121 14.9914 542.413 13.7939L542.397 13.7898C537.537 12.5538 533.118 11.4306 528.954 10.9686C524.832 10.5113 521.384 10.7609 518.452 11.9691C515.398 13.2275 512.696 15.5303 510.053 18.7718C507.382 22.0466 505.013 25.9665 502.443 30.254C502.385 30.3514 502.327 30.449 502.268 30.5468C499.825 34.6238 497.178 39.0398 494.114 42.841C490.949 46.7658 487.083 50.3724 482.054 52.4445L478.315 43.3701C481.247 42.1619 483.87 39.9095 486.473 36.6808C489.102 33.4198 491.447 29.5088 494.025 25.2082L494.034 25.1938C496.531 21.027 499.254 16.4843 502.447 12.5691C505.67 8.61618 509.607 4.9985 514.713 2.89467C519.741 0.822612 525.026 0.657821 530.037 1.21379C534.89 1.75225 539.879 3.02172 544.485 4.19374L544.816 4.27792C549.66 5.5101 554.103 6.62276 558.306 7.06535C562.466 7.50343 566.005 7.23397 569.059 5.97558C571.991 4.76742 574.614 2.51505 577.217 -0.713687C579.846 -3.97475 582.192 -7.88578 584.769 -12.1865L584.778 -12.201C587.275 -16.3679 589.998 -20.9105 593.191 -24.8257C596.414 -28.7787 600.351 -32.3965 605.457 -34.5003C610.485 -36.5724 615.77 -36.7371 620.781 -36.1812C625.634 -35.6427 630.623 -34.3732 635.229 -33.2012L635.56 -33.1171C640.404 -31.8849 644.848 -30.7722 649.05 -30.3296C653.21 -29.8915 656.75 -30.161 659.803 -31.4194L663.543 -22.345C658.437 -20.2411 653.095 -20.0346 648.022 -20.5689C642.998 -21.098 637.865 -22.4035 633.157 -23.6011L633.141 -23.6052C628.282 -24.8412 623.862 -25.9644 619.698 -26.4263C615.576 -26.8837 612.128 -26.634 609.196 -25.4259C606.142 -24.1675 603.44 -21.8647 600.797 -18.6231C598.127 -15.3483 595.757 -11.4283 593.188 -7.1408L593.012 -6.84794C590.569 -2.77088 587.923 1.64513 584.858 5.44645Z" fill="black"/>
<path fill-rule="evenodd" clip-rule="evenodd" d="M622.252 96.1906C619.088 100.115 615.221 103.722 610.193 105.794C605.088 107.898 599.745 108.104 594.672 107.57C589.648 107.041 584.515 105.736 579.807 104.538L579.791 104.534C574.932 103.298 570.512 102.175 566.349 101.713C562.227 101.255 558.778 101.505 555.846 102.713C552.793 103.972 550.091 106.274 547.447 109.516C544.777 112.791 542.408 116.711 539.838 120.998C539.779 121.096 539.721 121.193 539.662 121.291C537.219 125.368 534.573 129.784 531.508 133.585C528.344 137.51 524.477 141.117 519.449 143.189L515.709 134.114C518.641 132.906 521.264 130.654 523.867 127.425C526.497 124.164 528.842 120.253 531.419 115.952L531.428 115.938C533.926 111.771 536.648 107.228 539.841 103.313C543.065 99.3603 547.002 95.7427 552.107 93.6388C557.135 91.5668 562.42 91.402 567.431 91.9579C572.284 92.4964 577.273 93.7659 581.88 94.9379L582.211 95.0221C587.055 96.2543 591.498 97.3669 595.7 97.8095C599.86 98.2476 603.4 97.9781 606.454 96.7197C609.385 95.5116 612.009 93.2592 614.612 90.0305C617.241 86.7694 619.586 82.8584 622.164 78.5577L622.172 78.5431C624.67 74.3762 627.393 69.8336 630.585 65.9184C633.809 61.9654 637.746 58.3477 642.851 56.2439C647.879 54.1718 653.165 54.007 658.175 54.563C663.028 55.1014 668.018 56.3709 672.624 57.543L672.955 57.6271C677.799 58.8593 682.242 59.9719 686.444 60.4145C690.604 60.8526 694.144 60.5831 697.198 59.3248L700.937 68.3992C695.832 70.503 690.489 70.7095 685.416 70.1753C680.392 69.6461 675.26 68.3406 670.551 67.1431L670.535 67.1389C665.676 65.903 661.256 64.7798 657.093 64.3178C652.971 63.8605 649.522 64.1101 646.591 65.3183C643.537 66.5767 640.835 68.8795 638.192 72.121C635.521 75.3959 633.152 79.3158 630.582 83.6033L630.407 83.8962C627.963 87.9733 625.317 92.3893 622.252 96.1906Z" fill="black"/>
</g>
</g>
<defs>
<clipPath id="clip0">
<rect width="1170" height="96" fill="white"/>
</clipPath>
</defs>
</svg>
