<svg xmlns="http://www.w3.org/2000/svg" viewBox="0 0 1277.84 290.05"><defs><style>.cls-1{fill:#fc0;}.cls-2{fill:#0088b2;}.cls-3{fill:#00baff;}.cls-4{fill:#1d1d1b;}</style></defs><g id="Layer_2" data-name="Layer 2"><g id="Layer_1-2" data-name="Layer 1"><path class="cls-1" d="M19.61,81.51A57.2,57.2,0,0,0,46.08,94.6l58.49,12,27-57,9.95-21,1.09-2.29L14.44,0C-7.8,25.25-3,61.59,19.61,81.51Z"/><path class="cls-2" d="M104.57,106.57l27.3,5.59,56.95,11.67,2.81.57,6.51-13.72a57.3,57.3,0,0,0-11.25-65.26l-.06-.08-1-1-1-1c-.28-.28-.59-.56-.89-.82l-1.07-.93c-.65-.53-1.33-1.07-2-1.59-.45-.35-.91-.69-1.38-1a57.59,57.59,0,0,0-22.34-9.82l-14.56-3-1.09,2.29-9.95,21Z"/><path class="cls-3" d="M135.74,242.35,191.63,124.4l-2.81-.57-56.95-11.67-27.3-5.59L79.14,160.22C60.21,200.24,91.6,245.77,135.74,242.35Z"/><path class="cls-4" d="M262.2,98.07h90.64v16.15H280.77v44.41h64v16.15h-64v65.61H262.2Z"/><path class="cls-4" d="M374.44,138.44H390.8v13.73h1.81c4.65-9.29,15.95-15.74,27.26-15.74,4.64,0,9.48,1,12.51,2.62v15.54a41.86,41.86,0,0,0-15.14-3c-15.34,0-26,13.73-26,33.92v54.91H374.44Z"/><path class="cls-4" d="M444.5,189.32c0-32.1,22.61-54.91,54.71-54.91,31.89,0,54.7,22.81,54.7,54.91,0,32.29-22.81,55.11-54.7,55.11C467.11,244.43,444.5,221.61,444.5,189.32Zm92.66,0c0-23-15.95-39.78-37.95-39.78-22.21,0-38,16.76-38,39.78,0,23.21,15.75,40,38,40C521.21,229.28,537.16,212.53,537.16,189.32Z"/><path class="cls-4" d="M579.55,138.44h16.76v13.93h2c7.27-11.3,18.57-17.76,32.1-17.76,25.84,0,42.39,19,42.39,44.81v61H656.06v-61c0-17.15-10.29-29.67-27.85-29.67-17.16,0-31.9,13.32-31.9,31.09v59.55H579.55Z"/><path class="cls-4" d="M710.57,214.14V151.77H694V138.44h16.55l3.84-32.9h13.12l-.2,32.9h26.24v13.33H727.33v61.77c0,9.69,6,16.55,15.74,16.55a47.48,47.48,0,0,0,12.12-2V241.6a57.74,57.74,0,0,1-16.56,2.62C721.47,244.22,710.57,232.11,710.57,214.14Z"/><path class="cls-4" d="M779.61,96.65h106V123.7H812.32v31.7h67.82V179H812.32v34.32h75.29v27h-108Z"/><path class="cls-4" d="M902.15,188.71c0-32.7,20.59-54.91,48.65-54.91,14.33,0,25.64,5.85,32.91,16.15h2V90.6h29.87V240.39H985.73V227.27h-2c-7.27,10.5-18.17,16.35-32.71,16.35C922.54,243.62,902.15,221.61,902.15,188.71Zm84.59,0c0-16.56-11.31-29.27-27.26-29.27S932,172.15,932,188.71c0,16.75,11.71,29.47,27.45,29.47C975.43,218.18,986.74,205.26,986.74,188.71Z"/><path class="cls-4" d="M1035,253.71l28.87-5.65c3.84,11.3,13.33,18.17,26.25,18.17,16.55,0,27.25-10.9,27.25-27.86V226.86h-2c-8.28,9.49-18.77,14.94-32.7,14.94-28.67,0-48.86-21.19-48.86-53.09,0-33.31,20-54.71,48.65-54.71,14.94,0,25.64,6.06,33.72,16.15h2V137h29.07V239.18c0,31.89-21.81,50.87-56.33,50.87C1060.82,290.05,1040,276.93,1035,253.71Zm83.38-65c0-17-11.31-29.27-27.26-29.27s-27.45,12.31-27.45,29.27c0,16.55,11.51,28.67,27.45,28.67S1118.36,205.26,1118.36,188.71Z"/><path class="cls-4" d="M1165.4,187.9c0-32.3,23.62-54.1,56.93-54.1,32.9,0,55.51,22,55.51,54.5a66.09,66.09,0,0,1-.4,9.09h-81.16c2.43,14.54,12.72,24,27.46,24,11.51,0,20.39-5.65,24.83-14.13l25.44,6.46c-6.46,18.58-26.45,29.88-51.48,29.88C1189,243.62,1165.4,221.21,1165.4,187.9Zm82-9.08c-1.82-13.12-11.91-22.81-25.84-22.81-13.53,0-23,9.08-25.44,22.81Z"/></g></g></svg>